<mxfile host="Electron" modified="2023-10-05T01:29:27.482Z" agent="Mozilla/5.0 (Windows NT 10.0; Win64; x64) AppleWebKit/537.36 (KHTML, like Gecko) draw.io/21.5.1 Chrome/112.0.5615.204 Electron/24.6.0 Safari/537.36" etag="MQlLoOYRq4mtypTeUlCk" version="21.5.1" type="device">
  <diagram name="Page-1" id="PigIzTsj3uLuczsB04Zy">
    <mxGraphModel dx="778" dy="824" grid="1" gridSize="10" guides="1" tooltips="1" connect="1" arrows="1" fold="1" page="1" pageScale="1" pageWidth="827" pageHeight="1169" math="0" shadow="0">
      <root>
        <mxCell id="0" />
        <mxCell id="1" parent="0" />
        <mxCell id="9dVT_gyHZgVDh6Fpbcvv-12" style="edgeStyle=orthogonalEdgeStyle;rounded=0;orthogonalLoop=1;jettySize=auto;html=1;" edge="1" parent="1" source="9dVT_gyHZgVDh6Fpbcvv-11" target="9dVT_gyHZgVDh6Fpbcvv-1">
          <mxGeometry relative="1" as="geometry" />
        </mxCell>
        <mxCell id="9dVT_gyHZgVDh6Fpbcvv-17" value="Collect data" style="edgeLabel;html=1;align=center;verticalAlign=middle;resizable=0;points=[];" vertex="1" connectable="0" parent="9dVT_gyHZgVDh6Fpbcvv-12">
          <mxGeometry x="0.0308" y="1" relative="1" as="geometry">
            <mxPoint y="1" as="offset" />
          </mxGeometry>
        </mxCell>
        <mxCell id="9dVT_gyHZgVDh6Fpbcvv-1" value="AWS Account - A (Source)" style="points=[[0,0],[0.25,0],[0.5,0],[0.75,0],[1,0],[1,0.25],[1,0.5],[1,0.75],[1,1],[0.75,1],[0.5,1],[0.25,1],[0,1],[0,0.75],[0,0.5],[0,0.25]];outlineConnect=0;gradientColor=none;html=1;whiteSpace=wrap;fontSize=12;fontStyle=0;container=1;pointerEvents=0;collapsible=0;recursiveResize=0;shape=mxgraph.aws4.group;grIcon=mxgraph.aws4.group_account;strokeColor=#e84042;fillColor=none;verticalAlign=top;align=left;spacingLeft=30;fontColor=#CD2264;dashed=0;" vertex="1" parent="1">
          <mxGeometry x="330" y="237.5" width="180" height="80" as="geometry" />
        </mxCell>
        <mxCell id="9dVT_gyHZgVDh6Fpbcvv-6" value="Authorization" style="shape=image;verticalLabelPosition=middle;labelBackgroundColor=default;verticalAlign=middle;aspect=fixed;imageAspect=0;image=data:image/png,iVBORw0KGgoAAAANSUhEUgAAAIwAAACMCAMAAACZHrEMAAAAGXRFWHRTb2Z0d2FyZQBBZG9iZSBJbWFnZVJlYWR5ccllPAAAAM9QTFRFAAAAQkFD5z5AQkFD5z5AQkFD5z5AQkFD5z5AQkFDQkFD5z5AQkFDoD9B5z5AQkFD5z5AQkFDeUBC5z5AQkFD5z5AQkFD5z5AQkFD5z5AQkFD5z5AQkFD5z5AQkFD5z5AQkFDTk1PWllbZWVma0BCcXFyfXx+gEBCiYiKlUBClZSVoaChrFdZrKytuLi5xMTE0NDQ3Nvc5z5A5+fo6UpM6lZY7GJk7W5w73p88IaI8pKU85+g8/Pz9aur9re3+MPD+c/P+9vb/Ofn/vPz////cvUdIgAAACB0Uk5TABAQICAwMEBAUGBgcHBwgICPj4+fn6+vv7/Pz9/f7+8y8gLhAAAEUElEQVR42u2baVfaQBSGw2ZkqcEWlVIKAYtFUzAgWwybZP7/b2rmBsKSyWLK3FTPvJ9yNJ55zt3mzs0oSUJCQkJCQp9GOVlRlJKcSxwkU6qqrqqlTIIo8gGJo1s5Kfd4UAAnEesoBwSd+/1zo4SOkrrdrn3f0wlI13ZEFWyWmrNu94UcaNDdRnIqAZbOEQqYx7FOFRPG8ZFGGOpie6oEC/YJU334ZR6t0gWxENKDnMIKG6gvT8RXXURHyZDR/ixk3qZvZPCidxAAQ3Q006SgvpBAdWjUYMAUKIweDPOMlVDUS20Sopb90jUCTCM4lfYJVUMKmecwGKg1SIn9Egaj4yQ3wISxkDl9S/5PYIiA8dEAEWYQKYARNu7A9mEnDSe1pXr41kTIA1LvWbHXaUXJbAUBJh/BT1CAUQ7fjfCdknZXdbyjZD80fHEOltCPt+YBRaaF2JErwU3w/B7PMHYXUQ/sPIGlJmFJVv1pHLs0EOdYBWcAwWhrBs5hu4B52K7Akq3T0/ZcU/FZJOnaWbWtHVjnRWslwrLzFHWW9qzb6j/tZkWNvISuXE1lqprMyLPCYlGkZKSwYOQkYXoP7W0sP/QSh3GqywCxCw+DQT0SCBgBI2AEjIARMAIGEeayWLZVvEwcJl38PnT14yqbIEz2pjk81k02KZjyKQpVOZ0ETHrnoKm5WK8X5nTnrAt8mAvHLJOl5f7F0uFpxqVR6mok1QtMlvHq+Hi+nvwDTU6NrOOjZfonXdWwPIOL1/g0cnSYY49BvJiskc4S4iaNCHNFV3xlz7qA5ltcGC1UpzBpGjAzv8kbeCobE+b9n3jK9mojy/d1GsU3WDBgmCXjPWs2pT9exzNNPJgiTWoWCzXJxn6g9eYKCebOXmvhwzJ8s59WNKGQYJpbA7BYDHge2U9pFJgs3QUCWcjMfvTpb2Rfwa0iPVQwsXf/6Mt+UR8WYvoETf5WPbN+M4rvMQsUvrL3y8DZUVT10YVZTWcbFgsktxemqvKEseN09MZgYcMoHFgO3EQRbBoPC9NNqQZ8MNHJWbV2V4ZdaLT2sDADGD6H9siZtdkXYMNtfY/Ta8pIbSXKvaH3a7QvegaThVn0KEzn/DDGwXZgsFiWrO2AE8zycKM0GCWQuVFyggEvuC2EOTUZEe5tIXjBmIHNlTVmNle8YCxqmmlQSDF6K14wTtNtBPyuLOHBQI/ApnGOKhImjLMDzDxxY4GPmllUGLIZwVZw0pavxv4HSo4wZAO2GY4XbgNqLSdBB3+eMPa5ZLsVTAzT1utkNxLJSvgwhCxG3llRsxw0c+EIQyzzBKcZMEbjDUPjZLbnuSumQ6ZRfGGo3tbmn8fHX18jjMb4w2yvmSsC5rPAtDUEtSPCoOlDwRQwYUK/wChVR3QO3uqcXTA73y4R/Z4Yp7SKdxNKwHwYGE4BHA8mofKCCvP+e8s5biyNGPctMwonJfnv7kJCQkJCQvH0F0/hG1ggV+F5AAAAAElFTkSuQmCC;imageBackground=none;labelPosition=right;align=left;" vertex="1" parent="9dVT_gyHZgVDh6Fpbcvv-1">
          <mxGeometry x="30" y="30" width="40" height="40" as="geometry" />
        </mxCell>
        <mxCell id="9dVT_gyHZgVDh6Fpbcvv-13" value="Collect data" style="edgeStyle=orthogonalEdgeStyle;rounded=0;orthogonalLoop=1;jettySize=auto;html=1;exitX=0;exitY=0.5;exitDx=0;exitDy=0;entryX=1;entryY=0.5;entryDx=0;entryDy=0;exitPerimeter=0;" edge="1" parent="1" source="9dVT_gyHZgVDh6Fpbcvv-11" target="9dVT_gyHZgVDh6Fpbcvv-7">
          <mxGeometry relative="1" as="geometry" />
        </mxCell>
        <mxCell id="9dVT_gyHZgVDh6Fpbcvv-7" value="AWS Account - B (Source)" style="points=[[0,0],[0.25,0],[0.5,0],[0.75,0],[1,0],[1,0.25],[1,0.5],[1,0.75],[1,1],[0.75,1],[0.5,1],[0.25,1],[0,1],[0,0.75],[0,0.5],[0,0.25]];outlineConnect=0;gradientColor=none;html=1;whiteSpace=wrap;fontSize=12;fontStyle=0;container=1;pointerEvents=0;collapsible=0;recursiveResize=0;shape=mxgraph.aws4.group;grIcon=mxgraph.aws4.group_account;strokeColor=#e84042;fillColor=none;verticalAlign=top;align=left;spacingLeft=30;fontColor=#CD2264;dashed=0;" vertex="1" parent="1">
          <mxGeometry x="330" y="327.5" width="180" height="80" as="geometry" />
        </mxCell>
        <mxCell id="9dVT_gyHZgVDh6Fpbcvv-8" value="Authorization" style="shape=image;verticalLabelPosition=middle;labelBackgroundColor=default;verticalAlign=middle;aspect=fixed;imageAspect=0;image=data:image/png,iVBORw0KGgoAAAANSUhEUgAAAIwAAACMCAMAAACZHrEMAAAAGXRFWHRTb2Z0d2FyZQBBZG9iZSBJbWFnZVJlYWR5ccllPAAAAM9QTFRFAAAAQkFD5z5AQkFD5z5AQkFD5z5AQkFD5z5AQkFDQkFD5z5AQkFDoD9B5z5AQkFD5z5AQkFDeUBC5z5AQkFD5z5AQkFD5z5AQkFD5z5AQkFD5z5AQkFD5z5AQkFD5z5AQkFDTk1PWllbZWVma0BCcXFyfXx+gEBCiYiKlUBClZSVoaChrFdZrKytuLi5xMTE0NDQ3Nvc5z5A5+fo6UpM6lZY7GJk7W5w73p88IaI8pKU85+g8/Pz9aur9re3+MPD+c/P+9vb/Ofn/vPz////cvUdIgAAACB0Uk5TABAQICAwMEBAUGBgcHBwgICPj4+fn6+vv7/Pz9/f7+8y8gLhAAAEUElEQVR42u2baVfaQBSGw2ZkqcEWlVIKAYtFUzAgWwybZP7/b2rmBsKSyWLK3FTPvJ9yNJ55zt3mzs0oSUJCQkJCQp9GOVlRlJKcSxwkU6qqrqqlTIIo8gGJo1s5Kfd4UAAnEesoBwSd+/1zo4SOkrrdrn3f0wlI13ZEFWyWmrNu94UcaNDdRnIqAZbOEQqYx7FOFRPG8ZFGGOpie6oEC/YJU334ZR6t0gWxENKDnMIKG6gvT8RXXURHyZDR/ixk3qZvZPCidxAAQ3Q006SgvpBAdWjUYMAUKIweDPOMlVDUS20Sopb90jUCTCM4lfYJVUMKmecwGKg1SIn9Egaj4yQ3wISxkDl9S/5PYIiA8dEAEWYQKYARNu7A9mEnDSe1pXr41kTIA1LvWbHXaUXJbAUBJh/BT1CAUQ7fjfCdknZXdbyjZD80fHEOltCPt+YBRaaF2JErwU3w/B7PMHYXUQ/sPIGlJmFJVv1pHLs0EOdYBWcAwWhrBs5hu4B52K7Akq3T0/ZcU/FZJOnaWbWtHVjnRWslwrLzFHWW9qzb6j/tZkWNvISuXE1lqprMyLPCYlGkZKSwYOQkYXoP7W0sP/QSh3GqywCxCw+DQT0SCBgBI2AEjIARMAIGEeayWLZVvEwcJl38PnT14yqbIEz2pjk81k02KZjyKQpVOZ0ETHrnoKm5WK8X5nTnrAt8mAvHLJOl5f7F0uFpxqVR6mok1QtMlvHq+Hi+nvwDTU6NrOOjZfonXdWwPIOL1/g0cnSYY49BvJiskc4S4iaNCHNFV3xlz7qA5ltcGC1UpzBpGjAzv8kbeCobE+b9n3jK9mojy/d1GsU3WDBgmCXjPWs2pT9exzNNPJgiTWoWCzXJxn6g9eYKCebOXmvhwzJ8s59WNKGQYJpbA7BYDHge2U9pFJgs3QUCWcjMfvTpb2Rfwa0iPVQwsXf/6Mt+UR8WYvoETf5WPbN+M4rvMQsUvrL3y8DZUVT10YVZTWcbFgsktxemqvKEseN09MZgYcMoHFgO3EQRbBoPC9NNqQZ8MNHJWbV2V4ZdaLT2sDADGD6H9siZtdkXYMNtfY/Ta8pIbSXKvaH3a7QvegaThVn0KEzn/DDGwXZgsFiWrO2AE8zycKM0GCWQuVFyggEvuC2EOTUZEe5tIXjBmIHNlTVmNle8YCxqmmlQSDF6K14wTtNtBPyuLOHBQI/ApnGOKhImjLMDzDxxY4GPmllUGLIZwVZw0pavxv4HSo4wZAO2GY4XbgNqLSdBB3+eMPa5ZLsVTAzT1utkNxLJSvgwhCxG3llRsxw0c+EIQyzzBKcZMEbjDUPjZLbnuSumQ6ZRfGGo3tbmn8fHX18jjMb4w2yvmSsC5rPAtDUEtSPCoOlDwRQwYUK/wChVR3QO3uqcXTA73y4R/Z4Yp7SKdxNKwHwYGE4BHA8mofKCCvP+e8s5biyNGPctMwonJfnv7kJCQkJCQvH0F0/hG1ggV+F5AAAAAElFTkSuQmCC;imageBackground=none;labelPosition=right;align=left;" vertex="1" parent="9dVT_gyHZgVDh6Fpbcvv-7">
          <mxGeometry x="30" y="30" width="40" height="40" as="geometry" />
        </mxCell>
        <mxCell id="9dVT_gyHZgVDh6Fpbcvv-10" value="AWS Account (Aggregator)" style="sketch=0;outlineConnect=0;gradientColor=none;html=1;whiteSpace=wrap;fontSize=12;fontStyle=0;shape=mxgraph.aws4.group;grIcon=mxgraph.aws4.group_aws_cloud;strokeColor=#858B94;fillColor=none;verticalAlign=top;align=left;spacingLeft=30;fontColor=#858B94;dashed=0;" vertex="1" parent="1">
          <mxGeometry x="720" y="250" width="400" height="140" as="geometry" />
        </mxCell>
        <mxCell id="9dVT_gyHZgVDh6Fpbcvv-11" value="AWS Config" style="sketch=0;points=[[0,0,0],[0.25,0,0],[0.5,0,0],[0.75,0,0],[1,0,0],[0,1,0],[0.25,1,0],[0.5,1,0],[0.75,1,0],[1,1,0],[0,0.25,0],[0,0.5,0],[0,0.75,0],[1,0.25,0],[1,0.5,0],[1,0.75,0]];points=[[0,0,0],[0.25,0,0],[0.5,0,0],[0.75,0,0],[1,0,0],[0,1,0],[0.25,1,0],[0.5,1,0],[0.75,1,0],[1,1,0],[0,0.25,0],[0,0.5,0],[0,0.75,0],[1,0.25,0],[1,0.5,0],[1,0.75,0]];outlineConnect=0;fontColor=#232F3E;gradientColor=#F34482;gradientDirection=north;fillColor=#BC1356;strokeColor=#ffffff;dashed=0;verticalLabelPosition=bottom;verticalAlign=top;align=center;html=1;fontSize=12;fontStyle=0;aspect=fixed;shape=mxgraph.aws4.resourceIcon;resIcon=mxgraph.aws4.config;" vertex="1" parent="1">
          <mxGeometry x="740" y="283.5" width="78" height="78" as="geometry" />
        </mxCell>
        <mxCell id="9dVT_gyHZgVDh6Fpbcvv-14" value="Aggregator" style="shape=image;verticalLabelPosition=bottom;labelBackgroundColor=default;verticalAlign=top;aspect=fixed;imageAspect=0;image=data:image/png,iVBORw0KGgoAAAANSUhEUgAABLAAAASwCAYAAADrIbPPAAAgCXpUWHRSYXcgcHJvZmlsZSB0eXBlIGV4aWYAAHja1ZtXdmS5ckX/MQoNAd4MB3YtzUDD1z5AslxX9+tnPiRWN5lMcy+AiDgmAJr9P/99zH/xVX2IJqZSc8vZ8hVbbL7zoNr39X46G+/3+zXs/U2///S8+faC56nAz/BeyPv9dJ3n0/cPlPh5fvz8vCnzPfD1c6HPC1z4fgXdWY/XZ5CfCwX/nnef3037fKDnH6bz+d/Pz2U/F//191hYjJW4XvDG7+CCvd/9u1N4/3f+T3z3gRf0Hh67EPge7jt/WT/zGYf73QJ+e/TL+tmvkYXvy/Eu9DWt/Ms6fZ536Zfnw7fb+J9G5Py3O/sfR+ScO/bHrx/W75xVz9lvdj1mw3Llz6S+pnIf8UZlRrgfy/wr/J94XO6/xr9qu51EbTHVYciw6ZrzrOZx0S3X3XH7/pxuMsToty/89H76cJ+rofjmZ1AIov6544sJLaxQic0kcoGn/bexuHvfpvtxs8qdl+Od3nExYvzzP/PrE//qv58udM68S2zrt7ViXF5ZwzAUOX3nXQTkEwaViV5x5v2wv34psIEIprvMlQl2O94lRnLfcyvcOAebDG+NX/Vc1ucCLBH3TgzGBSJgswvJZWeL98U51rESn87IwQ8/iIBLJvnFKH0MIROc6nVvPlPcfa9P/j0NvBCIFHIohKaFTrBiTDFTb5UU6iaFFFNKOZVUU0s9hxxzyjmXLJzqJZRYUsmllFpa6TXUWFPNtdRaW+3NtwCMJdNyK6221nrnpj12rtV5f+eJ4UcYcaSRRxl1tNEn6TPjTDPPMutssy+/wgICzMqrrLra6tttUmnHnXbeZdfddj/k2gknnnTyKaeedvq3qH2i+nPUfo3cX0fNfaLmb6D0vvI9ajxdytclnOAkKWZEzEdHxIsiQEJ7xcxWF6NX5BQz23wwISTPKJOCs5wiRgTjdj4d9y123yP3p3EzrO4/Gzf/u8gZhe4/ETmj0P0QuT/G7TdRW/3CbbgBUhWypiBkoPx4U/eV/6CTf+2nsf/mBf6vX6jm3fdee+bVI5EZbQeAoE7WvHnYofdORbUQrQCFWIyyjltj2kVa+OyiGVtBXX1V8jKN4RIw2WYux/ZdzwxwgS0zhO2Pnw3i6Zlrbyh42VjthBjc2du0PU7NucLI5Z+ZDZPYm/pzIzQebZNTqn1tW1cnMWMO9c7DRzJGUuNNJeVDkoxoD5WSZk15bOjw2OnXJNH6MmkuH1iRUsNIdaW8Rty150Fip9EaksOR2ZT/GLVBDvFkZshFYv1xhObvToVPex8TF6XUbYqAAzVVxdmhEwUymzJo5Ww/Sx0U53Gj1B1PjXxm7byA8ZnGLJaYnj2ooD0JsN3Ew7W+x5jpHKOZ+zV2o9z8ahR4hprHWq2lUFIIcG07J0e7I0FEcrZ1pttjudKOq31qqbs39oQ0R5ybNd7Rh5Z8CXuGzqcUy+UL3L7aPDHzKecGq4oe2GXMHE+j4Mkc1EiNpxeriVPnuW87tlfe2BXPdm3N6PrJtfUaGTFE1vdqJ4ycqjuBjGXO3CkZ0q/2Q8RHONzL5TlmRN+luQG5CsTtlXeyPVxFQ+qcrASfjmTth2Tu4dQ2TKwAV1rgLYNJqwS3mSpAPzsDRt6AfJv1AV/3SrtVHgtdidAs24cCZI94rFmH5c0rn+jGHK2kwYPNchTv+OjZRyKY0dWx3RC0bZ+W3WQiWKmgzpPsKKa6AOG0UPqcU1MfPpIMwCslBJg7ILVUrVzcze2wRiohV0c1nOxdawwihROMP6OGNQXukFJyfPSXnyR79L7tsljo7EdqYXYyzLPe6xxAPCILDRGeg9JeBTivgxG7oSB53sDgWcIzZmN03LoR4dMhgQLslJGLgsZnE6ttWDY+msqiOhsVxkKVFffcFIHfrQ3enSHDWwiLNWeNI//1zhycL6QPV/LVUBGLaiiZSjglTdgHqHIBsUO9r+4EYOcQJVh15rDJUbLAqwY6MYJhBtTmTTvZBnGW8xtqBqKG3TuchvMpdVIN+fCGCmbmMVf2YeXuAJwEWLBOVbGOPSOPyUEu222fgdrJ4BAE5rVscxASJBs3cyuwLmuDXjzLmluotLkW9o6rDHtMDV1F2I4taTP8FaHRo6D3QpU5FijtWh0JKRnfQdTUWBYJhlKZgQcsQBn00SB90OSg3vFEhoKD2deavlfiyJXRKGVopsR8AOGZEnN95qFVPEBeIsCmOMRCU7V6QMdP3oPaIfptV4Y2qNx0oqeM66n1TvuECHC6VFEf+EAGm2c0x2M7EBkrycIt0IyiyKINageFypJVZsjCJDRuLHVB+hTJrBRAOCya7mQ7ecQ1RqKOa3MUbS1nzidA2oyLotmzVvTSkm9Y5KatIiyhNlx4cVtG1nw9+JOfYyJLKPweimP1JxW1Hddm8HM2KHIQMdLFmdMq6WUzoe+AYAeJZ2ZhKgmSsUlUPCDFNKj2HOdEeIdAYSewFL0zKzU4ACgD/CQt/nRJaMbCSPRZ4Aw8QaSJVZeb2acEifF9lqwZbgCZjD7ARV4gkmmsB1S++DUALm70DOVMNKbvqusVLRgGNHiSC56hRiZJUBB1aabmuZ0fILgZpV1ZSmAANyazGCw4tgpzDHEs5sod4X8gNFOA5CKIQY6SIps3MR3KgQtNPZSYtXJZlIk4RxW7PGlBUXrw/77d1fexeiPmOmnrgSSVCqYGU5gdQJpJll1jAjIawT5Q8oBuckYTploQmKiFSMD43AG7VRGRPHKdyuKnQeZWRoGyvAnPtckpPUK8APZlkIMb4mMxRoajM576YFnbVUhVMqMqnkaj5kp7IU0ZV+PCi4iPmgbZwgJJR+EjDr6W91UgEFF+GNa8E7ZxDyCY6meR6gpU+KZylkPdALQ5cZfcpNnwGovVhZ4G1ack7ZTm6uAhih1xgW4BKSgR8UBzFmKEayYZNRqZRqxZBagrgI8oEUD+HBXSXfAYNKeiki6Z6M5jWH695mPf4cZkPZBFDhWMl2KvSDafyn0evIcMwnYCT6ZC/lM01FpJDQmZOvDXY6F6UIXYmAa8AvMF1aLQNJUPI7KH8QnLD0YD3gSSPmMypNEfx1Qar2V/aocJ8BW5UZpQBBlFZWC/ch4VAELJMTJpMGdik3j9flOS897W6ntXqDPXA4nRL0zoUGELtXTFMFanWwI8Ozqb+grrLl1yvLGXGYFsSp3qg7viGooWo1Kl5cLtsGGwKMCfoM7DGrRJRAzSCxamWEgOEhutjX6L0CWEBBQDFBP9jhxEH/AgI9baXTy0OvWXqx+DWpwmLCiTIt6OvJCEgLA38godXdHwI0Wqnek57pdBrpS7J6WhK7AGLdxggUW9mYCWaIXxoxcRRUM8CPU46ndLEzXVAEuECoWKzwStAE901FOAfiF2yI1usAFoCcR0O6qJ6hTSxcihC8TdrcBEyFLg1jABstX1FhUr5OXBosxjQUyTsBLXikiWZSQGZQHPonEBHUTCTH1ZAjY9KdG5TVMtYJCJ3EC7+muk4zZcED7vwmxIyx9EBWyNDmGSJGXgszUrX1nvBvnDktGJUi38mdAXcC9AiGBHJhY4b7LqZD2CHdNQ4YuYuidEhZWcqmMEFNxHkCntiepmUhTjQPfB9mca0M9GipZQJLRfofqZpvo3mPXDUssROHDgNGUEemEiDJEoeBdCwAAGubdQI34f4rbvooHRA+25Ox6vBqSwdH4RiIe4BDfohOB3HcgZ6JQhV8pigyrTuOJVnicu+ZewKGypadlubH0YeKQVAViqoWWUJBPLURoXzkFAIfWlazpRK6T6ZrjoHgpK7g3FCBkTzrbPhLpS/Csu/vw0Xw/ISEAxCezIwIB0JpOxaPUgzAhjag61iAjps12MiC48sIVnegaPDvJsf4hGSHAve8i1KvwLjJLiIucEXFgCUhTWU20idJ0Wy0/sxTIkO7rJQvaAO6kYWVg8RGG2ZP+W2CUjAwkQUgI8kUwbBzS6GjVUVlaDjSiYZR3KH9sKRZBzZyOi8HI4tH2xsCfnFnbijJAu1MrGXLwi+ZFd+zLSbubJt4r0Ax53RW7ZewGb1ofpgoCFtJGmyY2SO1mVupAqraFJND5XTRON2sr4R/evI9o/TevBcDpSgvLovG03VDI0R2msCUaAM3h/j2d0KRYjqWzh1NIQYvCL+ALhfo7EjcZI8gylVCFhoep2TVMHv1dEfkw8ERGY3QTFdON41EaAyFAbEdeAgzmXaJCXaHMcqWT2KcjAswFg5DHGY4Q67wI48Ig82KcKtDyQvoqMtIcF4CUyFtuNxCMHKDDhPkVPKqigMeBN7hnLHlE3Bpxo3HZN/G+2j44KCgNmkWd1pTfh02BOyGLih+peqPrjuXV1MJPYuN4RYVjnWMocarYxCXA+XQHXERd7MbaBQAQ7hifVHNYUqAJUOvNPfjj1LwxeBktKLWgN1swIJAR/4H4gEsYL5dgpQKsmELINxsCDY2WY4sSk1IrHBF+T6WChEKyQLP4WHkIyxug2yiOD/xMbJcsDW2ozIItxEYFV5nsn2C9f7jUoxzLwx2A+Uo+gUf480lqR54hLzXEnbn81M95OLnrCsyhThA1pGAYMaxaCdgi/WAMMNAuISML0d7Sxn9QmkB+p19i8aAN25kvCh4xR5jErJturyVC5FatjtmAmIAgUVCYv6rTOvRt2n4gQaqznwVRF7WlkAgXQLTEry+k91d89scELj0pUU2MdIekVCp8F/ZBw6kFg/Maiugktiiur3QseDim3zBVLNn54jEWtE2+BTEf44/GhSxZZnl+igtUIipArZAoqNi3WAzNRBnnmIjDEh0xm/UjOIGkhZCr9rAverDxaCHHjqBo0XxLP2IFewMfJVMCQ5F2ivFijbuTincQq/ov0WfHIe1BnMcQEc/GNQsiC3VGR2alfV1yCY+AwVpQ9B2ZMl0LZTcowo9RDGix+cldW4Dg8jAQK4hV2JCdASACvkivQFOw9PcUeIVtn0B66cRoofgFqJMHqQEVhGcHVa4WOoAeGZQpYxDcm+Lcgh9GPjnujj9Bf5AlgFnEgGye9LSj5xw7JP/ppLuJeDvkXERuGp/gm+oh04s0Fcb/laAGQqgVDZbPmrLwPkzmpqarmpCIfQdwAeFfg822fbq9uzRY0D5SVvI4Xxgv0KcVy7w0q9vD9JZ75vKQX5H7kDKMBlQgtwCizQ20joxqRdOCJh1+BA7VIhtxuEu2eNtRxAVXBZmnC20bAQsD82ITjGRKoGq8YQnaowYmkyq4SiuFvw5Bi8eonS3xS2ugCgVMC5/KxBp0grK45XFhUTziNwQXUwWE58VBMZSHX4D0sFlmnJoFAhTiTF8NxqZrNvDvAmACqrLgtk+UhmIHsxjWS7KVAMpepSRcv3aPYHDXHW2sobfwFhtkUOMJ5xLS66njndhUG0RbKEFvpWRKeiwRp6kPlVDSeAyIjkgTl3TGxaeNF4AD1qEiYFhNCvJ6OB5UCRHnDOouqWs7BzAsgwEOD+gCsZ8Qd4IUe8Vr4fhzhBiCBFRWT3bAD4CqjocZnBtZmEF5SW9DcwL5CjrtNLbQ6cJRs2Yc1khhOHbJzsHgGwpF2YEElGHB6LnbdoAsiyObEHbz8mXqDXbp0p6bWpiFC/vbv0ZswFnmDK2f4VP3KGBFYCAqNXXvAbuOjF1ZQNCETkxb6BbUZfTJkdD7aOyJyIkJUUwq1XAWJAEZmsXJKb1ZOFYdPV+fV2Y71Oa5V/PaG2A1hYNXIKRJ6L9IMkhxj404yixQVcdbzSlRCC8OBT21df0fCEV4+lmF0I48N9+NCMTnBo88pAVLzn92vMT8/gZLVLi1lTmbGhXlZeICjwW2SNsAKmG6WqWJbKxTGasI72BDT4xTtUEoJIPGLFKpvVQgr5VPVp741H5n+bX5I9JCH6BWIf5wnFQ2gKN/FIsULGjNRTn49vLtgZnsgXZ9dho1utmELQQFcMwjyugFmyImy2FO6WlK4EnwH/3Z8EUje4brsN9VPsS9MLcXNHJjdVvWimjajxkK8VpKD9SGT7CFf9EEfsbbZpRED5tKK5fdtP6nLjKCDvMBeVALK6oKFN6/dk0IIqEU1oyoiPyREYgZbASBst5YOWwqek/Jtd1wroAR85yyLPhu6yBxNAMYOcBY/siDk7mOA10VNNyE1mFbJvtEiGMJKqc6WYxLQNEIOcz1hWqJFecHzzLugz7GvDnaiXAuMod6gMHtFjD55KnqwlFFXu/H211gckMNMkG3BkCRQgdB3lk3HCjLzLv+1VItEOV0hqtot5DB+t+NuPBpJvRZWD+OHjteKs96UvvdWW0da79EYq92Uv9MJk3KAlS5BxNLboh1hcpJfCSlCzWCM5anPjfZEgGK6dkbFZSB5q8nNzG77j2lAFEJ6cmeM/vIpl5drT7CL1uA1dD55TLJiYrcaCda9dPM3iz9XsfZznc9V7qbdNupcI+abLDuOGyuHW0P+onI9C+Wsx7FE9DW5VlFCg/8PoNryz6Vr/hN7tKJao31TfBMUhfHDXQOW2bM8+DUSv2+BEELRqa20tbaCcnV3fE+Av07iyCBMqj+DqHcDPmmnHqWrMJF5gTCpl5oDkOF6qUC1jpM0dXBzRvASdxccYEFMDBCK4IKfEhUK18vYXkNNLSEpu9gEyYXeDOqMYhycn8IXUsoiy7hRdJSWwTI3MIdwaLuLkXq8JIidqYVSuMTQJuK4uxCLsXErJsutZKJJt9sOhY/NviXWes/a68F82Mjv+BAyKTBH0plrkzmwl1UBIkqDvNLuEZUnSjsDhWhw78jRFaTQmTgqk6XOS2cOqr/509S18lvtNp1Vg/cAFKz0bWN3EGVpn9tQ4ol8h/UIDuEju4E2n9AzezUnE+mDzFG5SWnbt6SMLymbyqsf46pENpICCQPFDZm7RfQYxsbC+ZT5HnEH5GS7nV+ErQTda5Z/XRnfH7+qpj2s7JQuym1q2wRFDmjgzCDMe1QD1YxRGh5IwyOhChxVxMUc8riQjLiKVVik29nHhbMwqMbp2mv0AoCCMum4+VrCHqHq8CarOFarIR0NgoWEGX/xFt7xN7S2+d0L2qwNasRfIEFvTu1Ytox/hx1AGhAdkTIH79vleqBuyt2VmNKopOZQe0SuY5ybvvXPnhejhK+PCnDNj++y9vO+hlbR5wPwqOYPHrhh4qi+o04xF/FcxIHuFG9bsmcGKxhdB18KoUAL353updMzC8isRQVST1YPRntSW13SBqguGdp5MbkBitZAWYILFCPQTw44beunu+d9FdpJ6O+6xVDA3Q6UdNoboTyQujgi8D6RAwMLcSLFq4V2y2tH/TaJtlT6VA3Ax2vHqClCa1lNRe3tCszIJKkR5pCW6cwDF6fzIE7F4lB+qHmYrYWAUnrdmLHBNvh3iYOq3CYCd0B2ZKoaGn0Z56pXj1UH1gJSCKkzblmigVADSP20dQoBNMr4cAjvtXvErgQ+TYiXqseLAID+60ZjRHDiYM3vjaAlt2BANV181sHVEyB46DRjBaQYD5Pqjas1o5a+JkXEhF/IEHCqqRuy7du4QNo6UsQqFcfWjj8eiulQ2FaWWYqgV4Psx4nH6ZRh+Aft4qnE+WH99d0OUV5kItSlwHc00JNKb8Op3Rl1ZtdpsZcOl05h3621pkMaXjlscxJp1iGRk/60pj8Vbb6V9G+r9Yd6/uPrLH9XS/rYnZla0fmThGXvOv4FHBZbsQVIz/nqscCCr4C2y9INGqa6efz8aMwj3//bl7QtxOe7FGZPGTvEpYuc4BJ8sdS+rNkysZxd+iiZ3P8WJUMkS6f9WCLtUmC1mSReOOUB/B6m5tXCzG+z8GjxhMiTKF/u0PTxIHZ7eFm9VjuidotrCLE7KKwOmQ1vg3FwKKw95DF0xGfXrWrHNVampJNaC9vcrgSBdq1UHXTRsjYPSpMSDHKlao3JvCJiGNHe2sdQI1UOLsEecGAgJ2SBdJLkHpsi9tAnpSKf5HGn81g0JPNBN2uvZo2obpoFp+wsmGvQDpst/4pPyteZwZRgQ+LWVOLAK8L8GSiARdysXs00W3Rkk8i80sCx5LtKan7sAU4NbdXLvxWPCEcCMOlGUl6a7GZ4rbnXYbOh400Sa6NHZkcuU7NDNyYw1C/SAXvsUBjaJkeThmds1VTvZpba8SzIjg0qoeGdy9Qg1LdmrUtnQrYPmcTC8mubtRYlvQ4ekD+6IeuKlQBqI9iBowRowwZ3TsE6gJrCZyBlOJ0uQqxUnXNh2XBh4IQ8T+dLh4YycFBNnRKaE9PfNuWd1O6J6qlTmlmnN9RaRzXPexwAtZILeZRakyx0qF4ecdtgKhLv9HMPCe1vLPkX/faxQv+2E3ybIXcv2Cj/73bw3QzGTdv4Pq5jIXw83DrM3z4OSL2N5GsKu+atzwajHfc7BsunfMGLaX/rePzz3KxGATZKjHuhFMFGlXOP47XQkdvcT2S7ukk3x8Htc6iVgzau1t1BWySjzvn4piMF6Khbj11bpSDcXjoeuHW4JEnbG6DEVV7QoQhuhXXhPVgE9FXyAf+C1cFbb7UF5sCBMWXb05hudHlyZW08oxigF18OhnXta8S2EZJUUVETU1u53JDlyFE7LGfplMujBD4ryae+MlxC9QNKfg8eudx3np2FJMNkeYl7EINPWwn1VksMtl/ndmxEtlu7jDMIBdT1I0N03KMDO0ggIACXoxNQ2Pe5LtlWpxogv+5Jtrl+Oz5zB7jVN1Hr0UohohmWfo9gIqYE+U994RtAK98p5vvXIm/zTN4fCmDy9+DAzk+OApBvT2zeo5iI0areY8MfJ6duTyKQqn25USnagnstcFlZ1qhJgaV+e1lM8bOXlb9ObVCdOq5IeanXJi2w3eSzXTWOcCn4XCWK0dFowBqBq+5bdi2IeBl+2lIsokLkIvlctZuwg7qZOhEiNminfNgAMSpCwGh4EcK/wyfmO6H8lk/UYwRddMBKmykyfQu1Bf/B5FtdYDWbEe2mJDXudbSO2c8JfINsUJHwiZs5nl7BUZE6IargXgaBgwUQYl84REbFKJl0bgR1inOIgwXV6dd7fCH7E6D05sl9BOjdD9Hm/2XyWQLZrfMBhaWCaa/truezvfrTi7+8RsXquN5MOo2A6yYJSANEJqiNFSVxegjahbddp+tRt9Cbts6bv3IdVLmifFn8e3mKMt+DIdSSRAazgNeYHjKsxLmw0ZVS2XXpOJsFvXFAK6lXOvSnKKVot98rSrPx8CxsxTsgg8IyW4cdoo4t3LNue/bd745b1IaGjgrZmKcHGauP0NgONmrrX5J7jBXvhh+SWG0f5D5yrju3dICH1ysVnveS2dg60OuvbSfz1ZNXQz8AaGrtY2DfZKczyatsxxVLX69b+3kH7s9/dijutYb/Dew/1DcP9mH5u3w6XDm1kkBiv6m/bVfTsK6VoQA+SEXfSyMCqs6cDMdsMH4UxgSQwRAQjEDpCK1XN0JHDnUYLz6J+mjF2l+J5QRuRboaMDaeSQyDzoqSm0nsh3pxOtGk00w2+RlZabfF8vesK7zRCIfkg3Y2da7TRKwz/gcfgILdRVt22qHFfRV1byED2R20ktU5haETSaJ/+Ck1HeVAx5PC2l5dYDLwwuClX4N2C7eOleoYIgIvvUNR5x6IU1+KLGRSBxdQZRQAwHvIziRwBqQBlodOaic9xlIlVg3FpB6VbKo2IZ7T1zGM9NnIj5/2qvLbvN6rztV/nbFr+56xCzpjl671nvdQt4j5nYKon85aHbf+LAizTVcMeKvPe6SsPQ+GNTA5Q3+GlXXcvO7iR0Xvk6OQ0OWy9QQ8ekrH6hDppr780QSUHYJyfVJnrKek/D1xguvKoyACu+bRts4ktOgf9qslv1Fs6Gd/tNGgbfp+lb/Ot4d7CEznQN6Gy9ZpNkYvmCFDUdMwIbLvbrjyWfO62BAZdkOJ0sff2eK7V1j2ShuvS2yzdD6YsXOFpMOaOpf5/d6AmnzYDQhIm6/a7DUoIb4SvOu82DbuqAunlG4C7rDJVYxfXujZiL3eRacG32E6MlrnQoeOQOvvMpggLKvNP4wfC+Mp2lidjiiipUOzHlXzaammrfGT/V/NoVS++ScqLRa9ri44Ont7EhbFDyjE2KxOdshABZ1N6Cr1mkL49LGwA/7JBhhfue+PLCuBQGildVvU441BGTekc+7vWEVJ0fpit2+XoR51JH0gA/FAtt2/LFxG4XMTJNGJCRfknMNtQf4JNu8LU3+8lfm6V0JVdbLb5faeIbhwTU9YM21OkKesSZ6zU2JuYAzs47c9/uLPPFjdoL4PdwIbuTX6IDwnr5NxV8b+oGLBQBLyCdkA1G9SQSl0z5ucpZMz76ASA9KfZ+kIChpZfUe7tA+sQwVkTdGXAZZ04AaACr6meyg+iDVKg5MnRdr+cSLogJcRL9yjn0sK6Ih8Xm89/dhbf1cRN8zXxkzfeuvrFas5n3q59fqpVqHS23b+s8sPpEQlfkp2pAt+1GA4p+xrwvqIuiXQoTMSMOm0ldWBs9sGkC9aj1HyhRxEFJD+JeDMTwrun5Vv+HGtfsbxIdiFsl6DokIW6BgGN2vMDV61WwfYuePbcUuXENQUYBnaHdc7F3BtVrpbbhr3W9AVPkdP7xs0qwtid8ctvR03sGwrsfvbwuORLoSUvAsrtnavFN5dytel7k7y+OOg9Acp9z37XejcOh8i3HWP5nuc74Trrfpw3ukQEwAF4cE0MP7wvd2uIo7gG26a3wKperVWN6ykc62gXEi1djA/E5WqQOIm5GciKAr172qupfja4HrLpEV6VuUOe1xo+VoWJvqmPL4mzsqQAXenJkhof1+k+PWWt5SgdvzzaClYyhZTv4b013FzfxatFyzkcbpDopQR8gCd9vtK97OA601/Ll3yrDPpHA0KFbmG2ojqQDkF8S7q+2l+feJf/fn//UJFDVq82f8CF+eoWmQhavYAAAGFaUNDUElDQyBwcm9maWxlAAB4nH2RPUjDQBzFX1NLRaoOFhRxyFCdLIiKOkoVi2ChtBVadTC59ENo0pCkuDgKrgUHPxarDi7Oujq4CoLgB4iTo5Oii5T4v6TQIsaD4368u/e4ewcI9TJTzY4xQNUsIxWPidncihh8RQD96EEI0xIz9UR6IQPP8XUPH1/vojzL+9yfo1vJmwzwicSzTDcs4nXiqU1L57xPHGYlSSE+Jx416ILEj1yXXX7jXHRY4JlhI5OaIw4Ti8U2ltuYlQyVeJI4oqga5QtZlxXOW5zVcpU178lfGMpry2mu0xxCHItIIAkRMqrYQBkWorRqpJhI0X7Mwz/o+JPkksm1AUaOeVSgQnL84H/wu1uzMDHuJoViQODFtj+GgeAu0KjZ9vexbTdOAP8zcKW1/JU6MPNJeq2lRY6A3m3g4rqlyXvA5Q4w8KRLhuRIfppCoQC8n9E35YC+W6Br1e2tuY/TByBDXS3dAAeHwEiRstc83t3Z3tu/Z5r9/QCaa3K3tVBKjgAAAAZiS0dEAP8A/wD/oL2nkwAAAAlwSFlzAAAuIwAALiMBeKU/dgAAAAd0SU1FB+QFFw4NJbAblGIAACAASURBVHja7N13tG1VfT78ZwoqCAgoKKCGqqBYMEQ0YAGC2LDErliJJbaILRiNRn/RaOyJSmzBrokEC4gNxQYYxVhjQYpEpdroqCDf9499ru9F7oV7z9177bn3/nzGuIOREfeZc33nPGvN/Zy15mpVFQAAAADo1bWUAAAAAICeCbAAAAAA6JoACwAAAICuCbAAAAAA6JoACwAAAICuCbAAAAAA6JoACwAAAICuCbAAAAAA6JoACwAAAICuCbAAAAAA6JoACwAAAICuCbAAAAAA6JoACwAAAICuCbAAAAAA6JoACwAAAICuCbAAAAAA6JoACwAAAICuCbAAAAAA6JoACwAAAICuCbAAAAAA6JoACwAAAICuCbAAAAAA6JoACwAAAICuCbAAAAAA6JoACwAAAICuCbAAAAAA6JoACwAAAICuCbAAAAAA6JoACwAAAICuCbAAAAAA6JoACwAAAICuCbAAAAAA6JoACwAAAICuCbAAAAAA6JoACwAAAICuCbAAAAAA6JoACwAAAICuCbAAAAAA6JoACwAAAICuCbAAAAAA6JoACwAAAICuCbAAAAAA6JoACwAAAICuCbAAAAAA6JoACwAAAICuCbAAAAAA6JoACwAAAICuCbAAAAAA6JoACwAAAICuCbAAAAAA6JoACwAAAICuCbAAAAAA6JoACwAAAICuCbAAAAAA6JoACwAAAICuCbAAAAAA6JoACwAAAICuCbAAAAAA6JoACwAAAICuCbAAAAAA6JoACwAAAICuCbAAAAAA6JoACwAAAICuCbAAAAAA6JoACwAAAICuCbAAAAAA6JoACwAAAICuCbAAAAAA6JoACwAAAICuCbAAAAAA6JoACwAAAICuCbAAAAAA6JoACwAAAICuCbAAAAAA6JoACwAAAICuCbAAAAAA6JoACwAAAICuCbAAAAAA6JoACwAAAICuCbAAAAAA6JoACwAAAICuCbAAAAAA6JoACwAAAICuCbAAAAAA6JoACwAAAICuCbAAAAAA6JoACwAAAICuCbAAAAAA6JoACwAAAICuCbAAAAAA6JoACwAAAICuCbAAAAAA6JoACwAAAICuCbAAAAAA6JoACwAAAICuCbAAAAAA6JoACwAAAICuCbAAAAAA6JoACwAAAICuCbAAAAAA6JoACwAAAICuCbAAAAAA6JoACwAAAICuCbAAAAAA6JoACwAAAICuCbAAAAAA6JoACwAAAICuCbAAAAAA6JoACwAAAICuCbAAAAAA6JoACwAAAICuCbAAAAAA6JoACwAAAICuCbAAAAAA6JoACwAAAICuCbAAAAAA6JoACwAAAICuCbAAAAAA6JoACwAAAICuCbAAAAAA6JoACwAAAICuCbAAAAAA6JoACwAAAICuCbAAAAAA6JoACwAAAICuCbAAAAAA6JoACwAAAICuCbAAAAAA6JoACwAAAICuCbAAAAAA6JoACwAAAICuCbAAAAAA6JoACwAAAICuCbAAAAAA6JoACwAAAICuCbAAAAAA6JoACwAAAICuCbAAAAAA6JoACwAAAICuCbAAAAAA6JoACwAAAICuCbAAAAAA6JoACwAAAICuCbAAAAAA6JoACwAAAICuCbAAAAAA6JoACwAAAICuCbAAAAAA6JoACwAAAICuCbAAAAAA6JoACwAAAICuCbAAAAAA6JoACwAAAICuCbAAAAAA6JoACwAAAICuCbAAAAAA6JoACwAAAICuCbAAAAAA6JoACwAAAICuCbAAAAAA6JoACwAAAICuCbAAAAAA6JoACwAAAICuCbAAAAAA6JoACwAAAICuCbAAAAAA6JoACwAAAICuCbAAAAAA6JoACwAAAICuCbAAAAAA6JoACwAAAICuCbAAAAAA6JoACwAAAICuCbAAAAAA6JoACwAAAICuCbAAAAAA6JoACwAAAICuCbAAAAAA6JoACwAAAICuCbAAAAAA6JoACwAAAICuCbAAAAAA6JoACwAAAICuCbAAAAAA6JoACwAAAICuCbAAAAAA6JoACwAAAICuCbAAAAAA6JoACwAAAICuCbAAAAAA6JoACwAAAICuCbAAAAAA6JoACwAAAICuCbAAAAAA6JoACwAAAICuCbAAAAAA6JoACwAAAICuCbAAAAAA6JoACwAAAICuCbAAAAAA6JoACwAAAICuCbAAAAAA6JoACwAAAICuCbAAAAAA6JoACwAAAICuCbAAAAAA6JoACwAAAICuCbAAAAAA6JoACwAAAICuCbAAAAAA6Nr6SgAsutbaBkmut4p/10pywYp/VfUr1QKAmb7mb5tkqyQbztFhVZJfJDnLWgWY63N4VakCsEgL19sluf3Sv92T3C7JxmvxI36R5Gcr/ftJkm8k+W5VnanCANDVdX+LJI9O8oAkd12AQz4nyUeSfKiqPm8GAHN1ThdgAXO8aL1Rkr2T3CnJXkn2mHCT52UUZv1Pki8lObaqLjESADCVdcCzk7w4yaYLWoJPJzm4qn5oNgBzcV4XYAFztFDdOMmDk+yXUWC1XQfd+mySTyX5VFV9zygBwMTXA5sn+URGf8AieWRVfVAZgJk/vwuwgBlfpG6c5H5JHp7kvp1394dJDkvy7qo61+gBwNjXBdtl9MejHVXjSp5fVf+sDMBMn+MFWMCMLlBvk+SFSR42o4fw4STvrKqPG00AGMva4PpJ/jvJLVVjlQ6qqncqAzCz53kBFjBji9O7J/nbjB4TnAc/SfKajMKsi4wwACx7jfDpJPurxNW6c1UdrwzATJ7nBVjADCxIr5XkIRkFV386p4d5QZK3JfmXqvqZUQeAtVorPCLJB1TiGn03yW5VdYVSADN3rhdgAZ0vSA9I8uokuyzQYb8rySH2yQKANV4vnJpkB5VYIx4lBGbStZQA6HQhesvW2heSHJXFCq+S5HFJTm2tHdJau7bZAABXu2a4b4RXa+NpSgDMIgEW0NsidMPW2r8m+X6Suy1wKTZO8sokP2ytPdDMAIDVurcSrJXdW2tbKgMwawRYQDdaa3tnFFw9QzX+YIckR7TWjmytbaYcAHAVd1CCtba7EgCzRoAFTF1rbaPW2qFJjk2ynYqs0n2T/KC19hdKAQBXsq0SqBkw/wRYwFS11nZN8u0kT0nSVORqbZXks6211ysFACSttQ2SbKESa+1mSgDMGgEWMM1F54OTnJhkR9VYKwe31r7RWttGKQBYcBsowbJsrATArBFgAYNrra3XWntDksOTbKgiy3L7JN9srd1eKQAAgHm3vhIAQ2qt3TjJR5L8uWqssxsl+UZr7ZFV9UHlAKCTa/0GSbZJcuMkFyU5s6p+qTILNQe2z2jrg0uSnFVV56oKsK4EWMCQi5ntknwp9l0Ytw+01m5VVS9SCgCmdI3fPsmBSe6XVbwVsLX2yyQfS/JfVfVJFZu78d86yWOTPCDJHVfx/78gydFJPlRVH1UxYFnnmqpSBWCIhc3OST6fZGvVmJi3V9WTlAGAAa/vt0nykiQPXIuPnZzklVV12Bja3yzJr43EWvuXqjp4DPXfIMkhS//WdFuIbyV5RlUdZxiAtWEPLGCIxe2tkhwf4dWkPbG19kZlAGCg6/sBSb6etQuvkuTmSf69tfah1tp1VXJmx3/XJP+bUYC5Nnua7pbky621f22tXUclgTUlwAImvbjZPckJSW6oGoN4emvtNcoAwISv709PclSSdQkgHpLk862166vozI3/wzMKr9blTdLPSHLC0v6oANdIgAVMcnGzU5JjkmyqGoN6TmvtJcoAwISu7wcnGdcdv3+eUYi1mcrOzPg/Jsm4Xh6ze5LjWmtbqSxwTQRYwKQWN5tnFF5trhpT8Q+ttUcqAwBjvr4/Pcnrx/xj/zTuxJqV8X94kneN+cfulOR4d2IB10SABUxicXPdjN40s51qTNW7Wmt/rgwAjOn6/vSM786rP7Zbki8Ksboe/8ck+UCSNoEfv0M8TghcAwEWMAnvyuiRAKbr2kmOXnqUEwCWrbX2rEwuvFphtyRfWLqLm77G//FJ3p3JhFcr7BCPEwJXQ4AFjHuB89QkD1eJbmye5BhfBgBYh2v705O8bqDmbp/RG+pct/oZ/8ck+feBmvM4IbBa6ysBMMYFzu2SvFklurNdkvckua9SALCW1/ZnJ3ntwM3umtHjhHerql93UoqLk3x9gHa2WDr+Xsb/oAwXXq2w4k6su1TV2X4LgRUEWMC4FjibJPnInBzOBUnOTnJOkk0yeovi9ZPccIaP6YDW2pOq6m1mKwBreG1/TpLXTKn522QUYu1dVb/qoBynVNXeA9T8Ab2sp1prT0jy9ik1v1NGd+LdtarO8tsIJAIsYHzemWT7GervL5J8K8k3knw3yclJzq6q/7uGxdwOGe3RcYelf7snmZVXf7+htfaFqvqR6QrANVzvphlerXCbjN5OuHdHd2Ityvg/Mcm0/+i1U0Yh5l2q6hyjAgiwgHEsch6R5EEz0NXPLS3GjquqM5fzA6rqtCSnJfnwSse/Y0ah1j5JHp/kep0e/4ZJPphR6AYAq7uuPzfJqzvpzm0z2thdiDXc+PcQXq1w84zuxBJiATZxB9Z5kbNpJv9WonXx8ySvSrJdVe1XVR9abni1OlV1alUdUVVPT7JVkmck6fUupz9trT3fzAVgNdf1p6ef8GqF22YUYmxhhCY+/k9M8tbOunXzJCfY2B0QYAHr6nXpc2+oL2T0NsSbVNUh1/Ro4LhU1YVV9aYkuyS5R5Kjk1RntXlRa21rUxeAlS2FV73+UWrXjDb2FmJNbvxX3HnVOuzeDhFiwcITYAHrstC5c5KDOuvWKUnuWlX7VNV/VtVl0+hEjXymqg7IaA+Hf++oRtdL8nozGICVrunPSd93VCfJzhk9TijEGv/4PyX9PDa4OiveTijEggUlwAKWu9BZP8lhHXXpsiQvT7JrVX25p1pV1WlV9YQk90pybifdelhrbS8zGYClPa9eMyPddSfW+Mf/iUkOnZHu7hR3YsHCEmABy/W0jPYk6MHXk9yuqv6+qn7Xa8Gq6lNJbpWVNoCfsne01tYzlQEWV2cbtq+pnSPEGtf497Rh+5ryOCEsKAEWsJzFznWS9LAR+EVJnplkj6r6wSzUrqp+WVUPSvLoJOdPuTu7JHmcGQ2wsNfzWQyvVtg5yXEZbh/Omrd2ZjS8WmFFiHUTv8mwOARYwHI8JaO37U3TKUluXVX/WlU1awWsqvcluU2Sz0+5K95ICLCAlt5I++oZP4ydkxwzVMnmrJ37Z3bDqxV2SPJFIRYsDgEWsLYL3g2SvGjK3TgtyZ2HerPgpFTVT5Psl+SIKXZjp9baI8xsgIW6lj83ySvm5HC2N6ILXbcdkxwvxILFIMAC1tZfZ7jb9VfltCR7VtU581DMqroiycOTfGGK3XhBa62Z2gDzb8YfG4RV2TZCLFgIAixgbRa918p0Hzk7KXMUXq1QVZcnuU+SE6fUhVsnua8ZDjD313HhFfNKiAULQIAFrI37JpnWG1++n+Su8xZerVBVlyS559JxTsOhrbXXt9YObK3tZKoDzJfW2gsivGK+bRt7YsFcW18JgLXw1Cm1+70ke1fVL+a5uFX1q9ba3ZOcsLQIG9JNkhy80hedXyb5apIvJzmqqr5n+gPMptba3yV5uUqwAHZM8qXW2l2r6gzlgDm7ns3gy7uA6Sx+d8zozX9D+02SXWZ9w/a1rPXNk3wzyUYddeuUjDab/2hV/bffCICZuaa8IMKrcfh2Ve02wHg9IMlHlHudnZbRnftCLJgjHiEE1tRTptTuIYsUXiVJVZ2c5LmddWunJIck+Upr7YzW2ktbazfwawHQr9baCyO8YjHtkNGeWDdVCpgfAixgTT1yCm1+LckbF7HYVfWWJF/ptHvbJHlxkp+01l7XWtvarwdAX1pr/5DkZSrBAts2yXH2xIL5IcAC1mQRvHuSoUOKy5McWIv9nPPjl+rQq42SPCvJ6a21t9v8HaCb6/ark7xEJcDbCWGeCLCANfGAKbT58qo6ZZGLXlUnZTb+en6dJE9I8sOlNxlu7FcGYDqWwqvnqgT8gRAL5oQAC1gT9x+4vVPisYcVXp7kpBnp63oZvcnwpNbaQw0dwLCEV7BaQiyYAwIs4JoWw9smuc3Azf5dVV2u+slSHR4/Y93eJsl/ttaOWXp7JQCTv16/LH2FV5ckuUeSLxudhfWgJB/tqD8rQiwbu8OMEmAB12T/gds7J8mHlf3/V1VfSfKJGez6fkm+2Vq7n1EEmJylO69e2FGXLk1y96r6TJJ7JjnOKC2Uy5LsX1UfTvKQJEd31LcVG7tva5hg9giwgGtyp4Hb+7equkLZr+IdM9rvTZJ8rLX2z6219QwjwHh1+NjgpUn2q6oTkqSqVtyJJcRaDJcluU9VHbM0/pdntJdqbyHW8UIsmD0CLOCaDBlgXZHkLUq+Sh9P8vMZ7v/fJvlSa21LQwkwHr2HVysIsRbGb7NSeLXS+PcYYt0kQiyYOQIs4OoWxtdPcqsBmzyiqs5R+auqqsuSvGvGD2PPJCe21nYwogDrfI2eifBqpeuYEGu+/TbJPf84vFpp/IVYwDoTYAFXZ4+B2ztUya/WYXNwDNsmOaG1trPhBFieWQuvVhBiza1LMwqvvnAN4y/EAtaJAAu4OkO+ffDUa1r4LLqq+mGS4+fgUG6c0QaquxpVgLUzq+HVStcyIdZ8WTH+X1jD8RdiAcsmwAKuzpCPev2Xcq+Rd8zJcWyR5MuttTsYUoA102F4dVHWIrxaQYg1Ny5d5vgLsYBlEWABV2fIAOubyr1GPpjkV3NyLJsn+WxrbXvDCnD1Og2v9l3b8GIFIdbMW1Z4udL4C7GAtSbAAq7OdgO29Q3lXqMF32+TvHWODun6ST619MIAAFahtXZw+gqvLk6yf1WduI7XtEuS3DPJl2dgGC6as3bGMf4nrOP4X15VByQ5oqNju0mSY1trmzvzQH8EWMDVGWqj7Uur6mTlXmP/kuSKOTqeWyT5aGttPUMLcGWttbsneW1HXbooyT5V9ZVx/LCqujijEKv3O7FOHaidUzqvw1jHf8nD09edWDskOcq6BPojwAJWt2C+SZKhLtzuvlq7xf456euvleOwT5K3GF2AK12LN0ryHx2t2Vc8NnjiOH/ojDxO+KOBrvGnJ/l9pzW4YELj3+PjhHslOdhZCPoiwAJW50YDtiXAWnsHJ/npnB3TE1prTzO0AH9wSJIbdNKXiYRXK8xAiDXkneIndXj8FyS52wTHv8cQ60WttU2dhqAfAixgda43YFs2cF/7hd6ZSfZOcu6cHdobWms7G2Fg0S09vtRLqD/R8Gqla1uvIdZFST4zYHuHd3b8v84ovPrWhMd/RYj1kU6Oe9MkBzobQT8EWMDqbDhgW99S7mUt9E7LKMT61Rwd1vpJDjO6ALlz+rj76sIkfzHp8Gqla9uKjd17CrHeXFXnDdjea5Oc18mxDxJerTT+l1fVA9NPiPcApyLohwALWJ0h78C6ULmXvdD7wdKXnM/P0WHt2Vr7a6MLLLgHdtCHi5Pcvaq+NvC1bcXG7r28nfB1Ax//hUn+qYPjPi/J3lX13Smsbx6aPkKsu7fWNnM6gj4IsIDVuZ4SzIaq+kFV7bv0ZedHc3JYr2mtbWV0gQV22ym3f2GS/arqq1O6tvUSYr2+qqbxuP4bM929sH6e5K5V9Z0prm96CbFu5XQEfWhVpQqwyCeB1rZJsn1GjylsnGSTpf/eOclfDtSNm1fVKUZjbGN6jyQ7Jtk2o1dBb5nkjCSnJblhRns6bJpk6yR/2vGh/GeSg5b6fMMkmyfZYqX/+/dLX7AuWvrv+UnOqqrvmwXAHJzLv5pkjyk1f2FGd159tYM6bJTkk0nuMoXmP1lV957isW+d0aOUOwzc9M8zuvPq+538LvxnkodOsQt3r6rPOitBB+cDARYs1GL4LknummTXjAKOW6ePO60EWNObExsvzYm9kxyQ5JZzcminZXQ32veSfD3JsVP6CzrAcs/P0wywphrcrKIW0wixvpjkXlV16ZSPfduMQqybDtTkuRntefXDjsZ/zyTHT7EL96yqTzsrQQfnAwEWzPXi9w5J7p5ROHHnDLsx+9q4RVWdbMS6mDP3TPK3SfaZw8P7QZIvJPns0pezS4040PH5+Mgk951iFz5YVY/sqB4bJfnU0npm0r6a0cb1F3dy7FskeXWSx024qbMzemzw5I7GfY+l6/YmU+zGblX1bWcl6OCcIMCCuVvwbrO0wDkoo7usZsEuVXWS0etqHt0+yeuT3G1OD/GSJB9K8oGqOsaIAx2eh9+R5K+m3I0PVNWBHdXkekk+ncmFWKcn+aeqenunc+J2SQ5NsucEfvy5Se5SVT/q6HjvlFF4tdGUu7JVVZ3jrATTZxN3mJ+F7qNba8dmtNfRyzM74VWSNCPYl6r6ZlXtneQ5c3qI18so6P1Ma+1nrbVXLO01AtCLEzvowyNba+/t6Np0SUYbu39qzD/6hCSPqKrtew2vlo7/21W1V5IHZRTkjcu3k9yps/Dqz5Mck+mHVz8VXkE/BFgw41prT26t/V+S92R2H/sSHPS7WH5dRm/C+t85PsybJHl+kjNba29vrd3cyAMdOLKTfjyqsxDr4qq6V5IXrOOP+kWS12W0D+deVfUfM3Rt/nBV3TOjfbH+Kcl56/DjDq2q3arqxx2tbVeEVxt30J2POhVBR999PUIIM/iLO9p4++lJnplkqzk4pEOq6lVGtus5t2FGj9wdsACHe0WSI5K8oqq+afSBKZ57P5zh3gh8Td6f5DFVdUVH9blTkg9n7f4Q9sUkb0tyeFVdNifzZJMkT03y7CQ3WsOPnZ/kwKo6urNjuUOSY9NHeHVFklvZ5gI6OkcIsGDmFimPy2gjzy3m6LA+VFUPM7rdz71rJTksyWMX6LDfm+TZVfULMwCYwnl3l4zeptrLUxM9hljXyejthPdc+nfrVfzPfprRner/3tOdRhOqxQOWrtP3SLLeH/1PzkvyiYzuKvpEL5vUr9T/nsKrJHlfVT3amQg6Ok8IsGBmFiU7Jnl75vPtcKdW1U5GeWbm4j8m+fsFOuRfZ3SX4NuNPjCFc+4LMtrbshfvqarHdlyvzTN69P2KJD9Pck5V/XpB587Nktw4o0Dogqr6Rsd9/fMkn0k/4dX/Jfkzf8CCzs4VAiyYiQXIU5O8NskGc3yYm1fVeUZ7Zubkm5I8bcEO+/NJHmoxC0zhnPsfSXq6U7m7O7GY6fnd251Xl2YUXn3f6EBfbOIOfV/QN22tHZHkzZnv8CpJdjfis6Oqnp7kKwt22Psk+d/W2t3NAGBgj88oRO/FgUneaVgYw1p3z/QVXiXJA4VX0CcBFvR7Qb9Tku8meeCCHPIdjPrMeUCScxfsmG+c5NOttVe21tY3BYAhVNWlGb1E47iOuvWY1tr7WmvNCLHMte4dknw6/YRXlye5f1V9yuhAnwRY0OcF/VEZ3d1yswU67D818jP3hercJM9YxF/RJIck+czSG0EBhjjnXpLRJuU9hVgHZrQ/J6ztWveO6e/Oq4dU1ZFGBzo+d9gDC7q7oP9tklcufUleJKdX1fZmwEzO2f/J4gaQ30xyz6UwD2CIc+71lr7437Gjbh2W5Am1oF8sWmtbJtkpyQ2SbJJRKLPiv79LclGSC5f+nZ/kjKo6aYHncG97Xv0+o8cGhVfQ+/lDgAVdXdAPTfKUBS6Bjdxnc97umeT4BS7B6Un2qarTzQZgoPPuxkk+GyHWNGq/R5K7ZvSmw1ss/dt8mT/u5CQ/SvL9JCcmObaqfrkAa4aeHhv8fZKHV9V/ObPADJxDBFjQzQX9A0keseBluEdVfcZsmMn5+6EkD1ngEvx8af5+02wABjrvbpLkmPQVYr2jqp44Z3XeJcl9kuy99G/Swct3knwhyefm7Y6g1tpeGYVXG3XUrYdV1YecUWBGziMCLOjigi68Gvn7qnq5MszkHL5jkv9e8DKcl+ROi/xYCDD4uXfTjB7F6ukx7pm/E6u1tkVG+3s9OtN9S/L5SQ5P8p4kx814TffM6K7BDTvp0hUZhVfuvIIZYhN3mP4F/Q0RXq2woRLMpqr6apKfLHgZNktybGttGzMCGOjce36SfZN8o6NuHZTkHbP4dsLW2v1ba0dndFftGzLd8CpJNk3yhCRfSvKT1tpLl/bbmrW69hhePUZ4BbNHgAXTvaA/L8kzVeIPTleCmfZBJcg2GYVYmykFMISVQqzvdtStmQmxWmvXaq09srX27SQfTXLvTrt60yQvTvJ/rbU3tdb+ZEbWur2GV+939oDZI8CC6V3QH5PkVSpxJacqwUwTYI3snOSTrTV3FAKDWAqx9s5o/6ReHJTk3zpeh123tfbUJKckeX9Gm7LPgg2TPC3Jqa2197bWbtVxjfdK8pn0dYf9QcIrmOHv0PbAgqlc0G+f5GtJ1leNP7gwyVZVdYlSzPTc/laS26lEkuRdVfV4ZQAGPAffIKMNwG/TUbcOq6q/6qxO98hor655eOS7krwtySFLQWYvNe7tzqvKaG+2w5wpYHa5AwuGv6BvlOSICK/+2DuEV3Ph35XgDx7XWnuQMgCDfUOv+lVGd2L9sKNuHdRaO7STNdhWrbUPJ/lU5iO8SpKW5MlJTmqtPaKTOguvgMmcX9yBBYNf1P89o9vqubIdq+o0ZZj5+b1hkpOS3Ew1kiQXJLl1Vf1UKYABz8VbZrTx9y4ddevNVfX0KdbkAUneldHG6PPs6CQHTuturNbanyc5JslGHdXkyVX1NmcGmH3uwIJhL+oPivBqVf5JeDUfqurSJI9SiT+4fpLDW2uut8CQ5+KfJ7lr+roT62mttSdOYe21QWvt7Uk+kvkPr5LkPkm+21q70xRqfeMkR6Wv8OqpwiuYo+/T7sCCwS7qmyU5OckWqnElx1TV/sowd/P9TRltMsvIwVX1L8oADHwu3jLJMJq2PgAAIABJREFUlzN6uUQvbl1V3xvo+HfNaNuGnRdw+H+f5CUZ/ZHwioHq/YUkd+uoBk+rqkOdCWCOrmsCLBhsEfnGJE9XiSv5SZLb9rTpKGOb79dK8oEkD1ONJKOXFOy4dFcEwJDn460yCrF26qRLJyfZbdL7XrbW9svobqANFnwKfDzJg6vqtxOu90uTvLij435qVf2bMwDM2TVNgAWDLB5vneS7nXfz3CRnJTlz6b9nJ9ksyVZJtkxykyQ3zvhuCz87yf5V9V0zZK7n/luTPGkMP+qipbl5xtL8/FmSS5NcN6O3bd0myZ90Xo53VNUTzQpgFWuEXZautzfMaFPucdsqo42+ezHRO2NaawcmeXeS9cywJMnxSQ6oqvMmVO9Nk5zX0fGelOQ/JvSzf7O0hj0jyQlVdbHpBQNeMwVYMMji9MtJ7txZty5I8uEkn0xy9JpegFtrN0/y6CQHJtlhmW0fm+Th7kZZmPl/94xeV37TtfjYuUvz5PNJPlVVP1mDdjZOsluS2ybZP8n9OyzH7lX1DbMCFv68uEWS52V0l+q2C1iCz1XVfhOq7SFJXmmWXcUPk+xbVWdNoOYHJnnfgtb16CRvraqjTDEY4PopwIKJL1L3T/Lpjrr0niTvrqpjx3Bsf5rkwUkekWS7NfjIr5P8XVW91cxYyN+Fhyd5YpJ9V/M/+XpGm+x+vKq+M4b2bpRR2Pr4JLt2UoZPV9U9zQZY6HPhs5L8QxZjQ/Grc4Oq+vWYa/v6JAebZav1syR3r6ofjrnuRyR54ILX9tNJ/qaqfmSawQSvoQIsmPhC9fNJ9u6gK0ckeWFVnTSh49wzo78k75HRnTY3TfLLJD9O8oMkJyQ5vKp+aVbQWtsuo0da1k9ydlWdMuH29kjy7PSxJ9ftq+pbZgEs3Hnvxkk+mGQf1UiSPKaq3jvG+r4iyfOV9Rqdk2SPNbmzeS1qf2nsNZYkFyf566p6n1LAhK6lAiyY6GL1Tkm+MuVufC7JIVX1P0YEv5PtwUnekene+XB4VT3UaMBCnXu2S/LfGe0lycjfV9XLx1Tfv05iw+41d2qSO47jj4pLwezZSnolL6uqFykDjN+1lAAm6gVTbPuyjN7Asp/wCkaq6r8y2iz5c1PsxoNaa7cwGrAYWmsbJflEhFd/7Lpjqu+DkhyqnGtlxyTHLM3NLsZxzvx9a+1RygDjJ8CCyS1Yd05y3yk1/6uMNur010j4I1V19tLmwc+Y4rX32UYCFsabk9xSGa7i2mNYa+2f0dvmmnKutdsnObK1tv60x3FOvbe1tqMywPgX0cBkPGZK7X4vye2q6jhDAKtXVW9KcreM7lYc2iNbaxsaBZhvrbVbJ3msSqzSddextttl9OKP9ZVy2fZN8uppjuOc+yclgPESYMFkFqwtyeOm0PSPk+xZVT8zCnDNqupLGb2pcGibZHp3aALDcbfl6i37pTJLdw19JMn1lHGdHdxa228d156/U8ZVekhrbStlgPERYMFk3CXJNgO3eUGSe1bVBcoPa66q/jPJi6fQtP0xYI611tZL8mCVWPWpN8mH1uHz/y/Jbso4Nh9srW2xzGvopUk+qYSrPg0kebgywPgIsGAyhr6j44okD6iqHyk9LGsB/o9J3j1ws/durW2u+jC39s/obkuu6gtV9etlJQKt3TnJ85VwrLZI8sF1+PwRSrhaD1MCGB8BFkzGAwZu7+Cq+ryyw/JV1eOSnDZgk+sluY/Kw9z6MyVYrf9czodaa9dO8oHYtH0S9mutPW6Znz0yyaVKuEp3UgIYHwEWjFlrbdeM/pI1lK9V1RtVHsbiWQO3t4+Sw9y6kRKs0oVJ3rPMzz4vyc2UcGJe1Vpb67sGq+r8JO9SvtV+N9hMFWA8vLUDZv8L6bOUHMajqo5srR2b0ZuZhrC3qsPc8vjgqh26tG/S2oYAWyV5YcfH9e0kpyQ5K8mZK/33+km2Xvq3zdJ/90qyUYfHsGVGe0I+bxmffW2Sp5jeq7RpkvOUAdadAAvGb98B2/psVZ2g5DBWz0jynYwe8Zu0HVpr21XV6coOLIDLkyz3rvHXpK+3Dl6e5ItJPpbkw1V1xpp+cOlRyH2S3H/p3006Oq5nttbeWlWnrM2HqurU1tpR8YbdVQ65EsB4eIQQxnl1aq1l2DuwXqjqMF5V9f0kbxmwSY8RAoviqLUJelZaX+2a5MBOjuGXGd39fsOq2q+q3ri2x1RVl1XVZ6rqaVV104zuyDq6k+O7dpKXLfOzbzHFgUkSYMF47ZhkqOfcP1dVX1NymIjXDtiWjZ6BRfGuZX7uBR30/YIk/5DkT6rqDVV1wbh+cFWdUFUHJLlzkuM7ONaHtNa2W8ZxfCLJuaY5MCkCLBivnQds67+UGyajqn6c5IcDNXcLFQcWwLlVdeTafqi1tm2Sh0+x379J8rok21fV/6uqSyZ47Tm+qu6c5ICMHmWf5nfE5d7l/25THZjkyQkYn10GbOtjyg0T9fGB2rmlUgML4BXL/NzfTfE7yy+T7FFVz6mqXw3VaFUdneT2Sd4/xfF6TGttm2V87nUZhX4AYyfAgvEa6g6s/6mqs5QbJmqoAOsmrbXrKjcwx85I8ua1/VBrbYskT55Sn89Ocpeq+u40Gq+qK6rqUUneNKXjv06SZy6j32dn2MfwgQUiwILxGuoOrCOVGibuuCTnD9TWrsoNzLG/q6rLlvG5aT06eHpGd179YNqFq6pnJHnxlJp/bGttOW/kffWA109ggQiwYLy2Hqidryo1TPxLw++THDNQc9uoODCn3l5V713mZx89hf7+Osldq+qnHV2P/jHJa6bQ9I2T/MUy+nt+kgea+sC4CbBgvK4/UDs/U2oYxBkDtbOpUgNz6LAs8xHA1tr2SfYYuL+XJblvT+HVSg5J8skptPuo5Xyoqo7NKPyyHxYwNgIsGK9NBmrnp0oNg/jFnJ07AIZyWJInVFUt8/OPn0KfD6qq43ssZlVdkeShSU4auOkHt9Y2XGafj01ynwixgDERYMGYtNaulWTDAZq6tKouUHEYxM8Hauf6Sg3MiROT3K+q/modwqskuf/A/X59Vb2v58JW1UVJ7p1h95faMMt4jHClPh+b0UuO3pbkd349gHUhwILxGeoOilOVGgZz7pydPwAm4WcZ7Rl476rao6qOWpcf1lrbLMltB+z/6UmeNwuFrqrTkjxn4Gb3Xcc+/6Sqnpxkp4yCrB8kudSvDbC21lcCGJtrD9SOu69gOEM9QnhdpZ5trbU7JrlHkptl9EKPjVVl4Q31ZuJnJfnWFI7viiRnVtUpE/jZfzHwsTx36cUds+KdGQVuOw/U3ljGY2lvsSevdN7cKsm2GeYJhlV5Q5LbOVXB7BBgwfhcNFA7N1ZqGMwGA7VzsVLPptbas5M8O8lNVIMp+VZVfWHOjmnfAdv6RlUdMUvFqaorWmvPS3LkQE3etrV2g6r61ZiP4+wkZ0/x/H2e0wfMFo8QwvguwkNtUOlLEgxnp4HauUipZ0tr7W6ttZOTvNZ5GcZunwHbesaMrjuPSnLcgE3+hWkJTJsAC8brwgHa2KC1ZsNnGIYAiytpI/+Q5NgB5wcs0u/YRkluOVBzx1fVCTNcrn8csK3dzU5g2gRYMJtfQrdWahjEjgO1c6FSz4w3JHmJNRRMzM4DtvWxGa/V55JcMofjArBKFl8wXkM9x397pYZBDHWHzVlK3b/W2uOT/I1KwEQNGZQcOcuFWtp4/ug5HBeAVRJgwXidPFA791JqGMRQd2D9SKn71lq7WZLDVAImbqig5PSqOmkO6jVUCHeL1tp6picwTQIsGK9TBmrnXq21ptwwOa21/TPMWwh/W1VnqHj3XqYEMIihAqzD56ReRyWpAdpZL8l2picwTQIsGK+h7sDaMskdlBsm6vFzdt5gmVprmyQ5UCVgEEO91fPr81Csqjo/yakDNbeN6QlMkwALxuuUAdu6t3LDZLTWNk3yl3N43mB5HpTR3QfA5G0yUDvztPfgmQO14y3YwFQJsGC8vjVgW49UbpiYRyS57kBtfUO5u3d/JYDBDBWSCLDW3iamJzBNAiwYo6q6KMn/DNTczVtrB6k6TMSQv1tfUu7u7aYEMJihAqzT56hm7sACFoIAC2b7y+hLW2vXVnIYn9bavTLcHnOXJzle1bt3PSWAwQwRklxYVZfPUc0EWMBCEGDB+A0ZYN00ydOVHMajtXaDJIcN2OQJc/Ylal5dVwlgMNcZoI2L5qxmF87R2ACslgALxu/LA7f39621jZQdxuKNSbYasD2PDwJc2QUDtLFVa63NUc22HqidS0xPYJoEWDBmVfXLJF8ZsMkbJHnvnC3EYHBLjw4O/XKEo1Qe4EqGuDuqJbnRHNVsm4HaudD0BKZJgAWT8b6B2/vLJK9XdljmN5nWbpjk3QM3e0pVfU31Aa5kqMf7tpqjmm09Z2MDsEoCLJiMDyb5/cBtPrO19iylh7XTWrtRRo/ybTlw0+9XfYCrGCok2XqOajbUsbgDC5gqARZMQFX9OsmnptD061prjzECsGZaa9skOS7JrabQ/HuNAMBVnD1QO7efk+vYdZLcdqDmzjI9gWkSYMHkTOvuine31l5hTyy4xkX/n2S0X93Np9D8iVV1qlEAuIpTBmrnXnNSr30y3NsBv296AtMkwILJOSLJz6fU9vOTfLy1trFhgKtqrd08o/DqT6bUhbcYBYBVOnmgdvZsrW06B/W690DtnFNVvzU9gWkSYMGEVNXvkrxqyguaE1tr2xkNGGmtrddaOzjJ1zPcW5v+2FlJ3mM0AFZpqABrvSR3n4N63XfOxgVgtQRYMFlvTvLrKba/S5LvttZe3FrbyHCwyFpreyb5TkZv7Lz+FLvyz1V1uREBWKVTBmxrph8jXLqbePs5HBeAVRJgwQRV1aVJ3jTlbmyc5KVJTmutPdmosGhaa9u21t6b5PhMZ7P2lf0yyduMCsBq106nJrlgoObuP+N/4HvYgG19w+wEpk2ABZP3L0l+00E/bpTkLa21U1trL22t7W5omFette1aay9orZ2Y5PQkj+qka69bCrYBWL0vD9TODZMcMqPXuRsked6ATX7JtASmTYAFE1ZVv0zyyo66tEOSFyf5emvtrNbaG1tr92qt3XJONjNlwbTWtmqt7dlae3Rr7R9ba99O8uMkL0/yZx119YyMHl8E4OoNGZY8eykMmjUvzHCPw19UVd82LYGpr/urShVgmC/Zp2YUHvXu0ow2mT4riX166NkWGe39cb0Z6e9Dquq/DNtMnr/PSzLpgP/iJAeo9lx5fpJ7DNDOt5OcN6VjPDujPxj8OMlJVfXFMf3O3SmjN8UO5Y1V9TczdE66yVLNrz1Qk0dV1f3G1Pctk9x16fq93dJ/p/UY524DnNuTZPuqOt0pEcZwDhFgwWCLjX2SHKsSsJA+X1X7KsPMnr+HCLDOr6rNVHuu5s27kjx2wQ77Oxntu/mRWocvGa219ZNcmGSDgfp9WZIdqupnMzK33pnkcQM2+dyqeu069nnLjB7XfEpm5w9P4yLAgjHxCCEMpKo+n+RDKgEL6YlKACyA2yY5Isl3lu6iWu6a6fIknxyw39dOcnhr7Tq9F7i1dr8MH4x+ZB37/PIk5yZ5ThYvvALGSIAFw3paRrfbA4vjWUtv1QJYFLdOcmxrbe91+BnvG7jPd0ryH621br8ftdb2SHJ4kjZgs1+vqtOW2d9rtdY+lOQFfiWAcRBgwYCq6hdJHpLEs7uwGD5VVW9QBmABbZjkU621+yzz80dl9BjhkP4yyb/1WMzW2o5JPp1k6LvE3r/M/l47yYeX1r0AYyHAgoFV1XFJ/lElYO6dkeQRygAssOsmOaK1ts0y1kuXJfngFPr8pNbaP/RUxNbadkk+m2Qa++QtdwxelOT+fgWAcRJgwXS8NMlxygBz6/Ikf1lV5ykFsOCum+RVy/zs+6fU55e01t7Xw55YrbW7JflGRm/sG9oxVXXOMvq8dZK/NfWBcRNgwRRU1RUZ3ab+M9WAufSkqjpRGQCSJAe21m6/jM99Ocn/TqvPSY5rrd1oWkVrrT0lozuvNp9SF96yzM+9OqPgEmCsBFgwJUv7Ye2f5HzVgLnyqqp6pzIAXMla7y1VVZXklVPs8x2SfHOZ4duytdbWb60dluTQJOtP6dhPzjLePtha2z2j8A9g7ARYMEVV9YOM9gf4vWrAXPh4kucrA8BV3LG1tucyPvfBJKdPsd/bJPnv1tobWms3nHRjrbX7Jfl2ksdPebxevhQgrq1nmurApAiwYMqq6otJnqgSMPO+nuShy1zwAyyCtQ5llrZdeNWU+32djIKZ01prf9da23DcDbTW/qy1dlySjyW51ZSP96wsY/+x1tpGSR5qmgOTIsCCDiw9bvSkJL74wmz6epL9qupSpQBYrUe01jZYxjrp35Kc20H/r5/knzIKsl7VWrvLuvyw1toWrbWntNY+k+TEJHt1Mk4vq6rLl/G5R8XeV8AENX8oho5+IVt7YJIPuPjDTPlskvtW1W+UYm7Pzecl2XTCzZxfVZup9lzNm3cleaxKXMVfV9Vbl1HPJyV5a4fH8+skRyf5cJIzklyU5MIkF1bVea216yXZJMnGS/+9fkZB1QFJ9uzweE6tqp2WOed/mGRnU/wqtq+q05UBxnBtFWBBdwvevZJ8cmmRA/Tt/UkeW1X2sZvv87IAi+XMmzcleZpKXMVpSXZa28etW2styVcz2lidydm3qj6/jPl+9ySfUb5V2qKqfqkMsO48Qgidqarjk+ye5AeqAd26LMlzq+pRwitgNc5RglXaIcl9lrE+qiRPiO0WJunw5YRXS56tfKt0ufAKxkeABR2qqpMzCrE+oBrQnTOS3LmqXqsUwNU4WwlWa1lv2Kuq7yR5s/JNxKVJ/mY5H1x6O+M9lHCVzlQCGB8BFnSqqi6tqgMz2tzd3jrQh88muW1VfU0pgGvwVSVYrXu01tZb5mcPSXKyEo7dU6tquaHr/ZI0JVyl/1YCGB8BFnSuqt6e5NZJvqQaMDW/SvLEJPtX1a+UA1iD6/d3kpyiEqu0UZJ9l1nXS5L8Zfxxb5w+VFXvWofP31cJV+s/lADGR4AFs7EIPrWq7pbkwNhTA4b27iS3qKp3lDefAGvnn5VgtQ5Yh3XR95I8SwnH4pQs85HOJGmtXSfJPZVxlU5PcqQywPgIsGCGVNUHktwiyb8luUJFYKJOSrJXVT3OBqzAMh22dC7hqrZfxzXRW5J8RBnXyW+S3H/prrblulGSDZVylf7Wi15gvARYMGOq6oKqemqSmyd5Y5ILVQXG6stJHppk16o6QTmAdbhmX5HR3dOXq8ZVXDyGn/HoJPYkXJ4rkjykqr7fwTjOo6Or6nBlgPESYMHsLopPq6q/SXKTJM+MfTZgXfwmyTsz2qD9rlV1uL+aAmO6Xv9PkmerxFVcPIbaXpzR2+/c5bb2/qqqPt7DOM6hU5M8XBlg/ARYMPsL4wur6l+r6uZJ7pbkXUkuUhlYI8dntDn7VlV1UFV9V0mACVyr35jkNSpxJReNqbbnZbQh/JlKusZesI6btq9c/98p55X8NMm9qspaHCZAgAXztUD+UlU9vqo2SfKQJJ9IconKwJV8N8lLkuxYVXde2pz9fGUBJnyNfl6SZ6jEH3xxjLU9M8k+SX6hrNfoDVX1ijH/zE8ra5LkW0n2qKqTlQImo3mhEsz5L3lr6yfZY2lht2+SPZNsoDIskJOSfH7Fv6r6uZKwlufR85JsOuFmzq+qzVR7IebTzkkOyWhvrOssaBkuTbJpVV025trulOSYJNuZaav0sqp60QTm9F8leccC1/X7Gd1h+b5xz2ngj843AixYyMXzLZLslOSWGb3VcIckN0iycZJNlv5trFLMgF9k9BjKhUnOz+gRkh+t9O97buNnDOdMARaTmFebJ7lPkgck2SXJ1kvX4kXw/qp61ITqeqMkn01yG7PsDyrJE6rqsAnO5V8tUD3/L8nPMrqL8KNVdaIpBgNdOwVYAKtdkH0syf0GaGq3qvq2ikO35wIBFrM+hw9O8vqOunT/qjpygse7SZJPJtnL6Oe3SR5WVR+b8Bz7dJL9OznmU5LcparONvwwX+yBBQAAc6q19pT0FV59LsnHJ9lAVV2Y0bYJb1zw4f9pkjtOOrxa8tyMwrIe7JTky621LZ0BYL4IsAAAYA4thVeHdtSlnyZ5UFVdMemGqup3VfU3Se6f0WPmi+boJLcZ6g7vpbf4HtTR8e+U5EtCLJgvAiyAq1mPDdTOFUoNwDi11p6avsKri5Pcc+i3vi49qni7JN9ckKH/XZJnVdUBU6j1B5K8uqNa7JLki0IsmB8CLICrWf87FwMwcxev1g5K8uaOunRpkv2r6vvTaLyqfpzRG5kPyShIm1cnJLltVb1hin04JMlhHdXklhndiXUDZwaYfb40AQDAnFgKr97RUZcuTbJfVZ0wzU5U1eVV9aqM3r58xJwN+zlJHl1Ve1XVSVOucyV5QvoKsXZJ8gUhFsw+ARYAAMyBlcKr1kmXLkoH4dXKqurMqnpwkr9IcuqMD/nvM9qo/hZV9b6OatxjiHWbjEKsTZ0pYHYJsAAAYMa11g5Mf+HVvj2FVyurqmMzujPnoP+PvTuPk62szwT+/ACVVVYBAQURFBfctyC4gZpRx0gcxyWJo3GLM5qo0YyZJJPNmGQSR+OYMaOJRpPojEnEGMkYBRSjSYyIgEJUEDcW2UFWM8Jv/qjTuc2V29ylu/pU1ff7+byf7tt9uefU854+XfXwnlNJvjJj0/0vw1wf0d0/3d3fHWG+Yy2xTlFiwexSYAEAwAwbyqv3Znzl1efGnNtwWeG7M7lP0jOTnDbyqb4uyZuSHNLdL+nu80ae7xhLrIdEiQUzS4EFAAAzall5NZbn9TNRXi3XEx/s7ocneViS30ty6Vh2L8knMlkpdtfufm13XzxL2Wa8JdauziAwWxRYAAAwg6rq30V5taq6+/Pd/aru3i/Jv83khu/XrMOunJ7kF5Ic3N1P6O53d/d1M5rpWEusk5RYMFt2EAEAAMyWobz631FerZnu/kiSj1TVdkkelOTxSZ6Q5Jgku63y5s7OZKXVJ5J8sruvnKfjtbu7ql48/PEnR7Jbj8ykxDpuVstBWDQKLAAAmCHLyqvtR7JLc1deLdfdt2SyIur0TO5Blaq6R5LDMrl/1r2Gz/fOpNjadfh45yQ3Jbl2yOjaTFZzXZjkq5ncPP68JF/q7hvm/bgdeYn1hEWYA5h1CiwAAJgRVfX0KK/WXXd/PcnXk3zcUblFuY21xPrbqnqyEgvGzT2wAABgBgzl1V9GecUMG+k9sY7OpMTa0QzBeCmwAABg5JaVV2O5gkJ5xVYbcYl1ohILxkuBBbDC86spbecWUQOwKVX1+CR/lfGUV9cneZLyim16kjXxoiTvGNFuPSHJh8wOjJMCC2CF1wzOxQCs6y+iqkMyWXk1FtcleXx3/4PZYZX8VMa1EuvJVfVm0wLj4ybuAJtmBRYA6+3DSfYcyb5cn+S4sa68qqqnJjkmyd2T3CXJFUkuSXJ2kvd193WLcMBU1SOTPCXJQUn2G758QSbvfPiB7r5gVE+2JpcTvqiqvp/kpSPZrVdV1UndfaJTEIyHAgsAAEaoqp6f5MiR7M61mVw2+NmRZfT4JD+R5JlJ7rzCX/1fVfXeJG/t7s/P4bGyU5KXJXlFknuu8FffVFWfS/LnSf6ou68cy2Po7pdVVSV5yUh26XeSKLBgRFy2ArDC80HnYgDW0atHsh/XJTm2u/9xNL+gq3aoqrcmOSXJC7NyebXk+UlOq6qPVtWj5uKJStXuVfWLSb6d5M1Zubxa8vAk/y3J2VV17Mge0ssynssJ71NVT3EagvHwogkAAEamqu6W5EEj2JXRvdtgVe2f5DNJXrmV/8STk/xDVZ1WVT9VVbvN2LGxV1W9oKo+lOTiJL+eZO+t+Kf2T/LxqnpzVd1xDI9thO9O+CxnIxgPBRbACs+jprQd98ACYGM/NoJ9GN09r6rq3klOT/KIVfjnHprk7Ukurar/WVUHjvmAqKqDquoPMrm317uT/EiSnbb1n03yqiQnVdXOo3jyNa53J3yGUxGMhwILAADG5+HrvP1rM1l5NZp7XlXVEUk+leSuq/xP75jk5UkuqKq3V9VBYzoQqmrfqnpXJpcJvmyNNnNMkr+tql3G8ri7+2VZ/xJrj6q6j9MRjIMCC2CF54zOxQCsk/3WcdtL97z6p9H8Qp6svPq7JPuu8aZ+Ksk5VfXgkTzuPbLhPl9r7egkHx3LSqxl87HelxPuG2AUvGgC2DSXEAKwXu6wjtv+zMguG7x/JuXVPlPa5G6ZrEY6bJ0f946ZvAve/aa42VGVWMM9sd66zruxo9MRjIMCCwAAxueSddz2k6vq/WMIYSivTk1ylylv+i6Z3Bdq/3V8+H+R5Kh12O5oLiesqiMzWYG2nr7jdATjoMACWOF5k3MxAOvk0nXe/nOq6oNVtf26/RKuul8m97zaa5124eBMbvK+Ho/9GUmeuo7zv+4rsYb5P3Ud53/JJQFGwYsmAAAYn8+PYB+OT/Ln61FiVdWDMrlscM91zuBH1ul+WL85gvk/OpOVWDuvw/zfbyTzf3F3W4EFI6HAAgCA8fmrkezH1Eusobw6NetfXiST1di/PNUNVh2f5IiRzP/US6wRlZdJ8pdORTAeCiwAABiZ7r4oyQkj2Z2plVhV9fBMyqs7j2g6pr0K69kjOxynVmKNrLy8JcnbnI1gPBRYAAAwTv8l43mn2jUvsYby6pSMq7xa8vQpbuvIET7+NS+xlpVXY5n/93X3V5yGYDwUWAAAMELd/eUkvz2iXVqzEmtZebXrSKfjoGlspKrukPFcPrixNSuxRlheXZHktc5CMC4KLAAAGK9fTPJPI9qfVS+xquqojLu8SpK7TWk79x35a7RVL7FGWF51kmd1t3dXblSHAAAgAElEQVQfhJFRYAGs/ARmGm4RNQC3+Yuo+5Ykz0xy0Yh26/gk71+Nf6iqjknysYy7vEqSfae0nUNm4LA8OsnfrEaJVVWPTPLJjOuy0V/q7k84+8D4KLAAVnhe5VwMwHrr7guSHJXkwhHt1rOq6oPbshJrWHn1t0l28bpp6s89ttVjs40rsYbLRk9KsvuIHtfvdvdvOOvAYp+IAQCArdTd30zy6IyrxNrqywmr6nGZlBc7md2ZtdWXE470nme/292vM60wXgosAACYAfNSYg3l1UejvJoHW1xiKa+AraXAAgCAGTHyEmuH2/uLVfXETMqrO5nNubHZJZbyCtgWCiwAAJghIy6xPrRSiTWUVydGeTWPbrfEGum7TSqvYIYosAAAYMaMtMR6ajZRYi0rr+5g9ubWJkusobw6KcorYBsosAAAYAbNSolVVU+N8mpR/ECJtay8GtM9z5RXMIMUWAAAMKPGXmIN5dWHorxaJP9aYimvgNWkwAJY4XXBlLZzi6gB2OpfVpMS6+gkF41ot56a5BNJPpJkB7O0cI7O5H5XH8+4yqtfV17B7FJgAWxaORcDMAu6+xtJjsq4VmIdbWYW2iOT7Dyi/Xldd/9X0wKzy4smAACYAyO9nBDG4HXd/btigNmmwAIAgDmhxIIfoLyCOaHAAgCAObKsxPqmNFhwyiuYIwosAACYM0osUF7BvFFgAQDAHOruC6PEYjEpr2AOKbAAAGBOKbFYQMormFMKLAAAmGNKLBaI8grm2A4iANj0c/4pbedmUcP0VNUuSfZOsk+SvZLsm+Quw9duGf7aHZLsN4zdp7Bbu1fVXye5JMnFy84LneTqJJcluTTJFUku7+5vm0m26Bda94VVdXSSTyW5h0SYQ69XXsF8U2ABjOD1tAhgFX6QqvbKpJDaK5Pi6d5JDk9y6PDnvYfv7TjSh/C0LXisSXJjJoXWFUm+k+T8JOcm+UomZdeVSa7q7qscHSRJd19QVY9J8ukkB0uEOfL67v5tMcB8U2ABjOB1twhgM35QqnZNclgmhdShw+f3HMYirijZKclBw3jgCrklk2Lra0nOGz6eP3z8Wnff5OhaHEOJ9ehMVmIdKhHmgPIKFoQCCwAYlao6NMlDMilllhdW+0hnqx0+jNvK++JMCq3zk3w1yRlJ/qm7LxXbfBouJ3xM5qPE+sUkbzCrW+x/J3lQkiNm/HEor2CBKLAARvBaQgQsoqo6Msn9sqGgOjTJg5PsIZ2puuswHr3R/Fyc5KxsKLfOT3Jad39LZHPwi2dDifXpJIfM6MN4ZZI/jQJra1yS5LFJTs3sllhu2A4LRoEFAExFVR2e5JFJnpLkuExunM54LRVbG8/jV5KckuTjST5jpdbsWnZj91kssV7Z3W+rKoX31s//pVU1qyWW8goWkAILYASv60XA3B3UVTsleVwm/4f/EZlcEri7ZObCvYfx8mGuL07y+SSfTXJyd/+DiGbHshLr1EzuJzcL/mN3v93srcr8X1pVxwzzf98Z2e2f7e7/bvZg8SiwAIBVUVUPTvKkJE9O8niJLIy7ZvIOik9L8utVdU0mK7ROSvLh7r5AROM2lFhLK3HGXmK9vLv/wKyt6vxfvmz+x15ivaa732zWYDEpsACArVJV+yR5apInZlJcuSSQZLLS7vhh/H5VnZvkbzK55PCU7r5RROMzIyXWS7v7nWZrTeZ/qcT6ZCb3Jhwj5RUsuO1EAABsrqo6rKp+rao+n+SyJH+c5MeivGLTDk/yM0k+kuSGqvpYVf10Ve0pmnHp7gszuez3ayPcvZcor9Z8/i/P5NLvL45w95RXgAILYAzPGUXAmFXVXlX18qr6bJJzk/xSJve0gq3xxCS/l+TKqvpwVR0vkhH9QpqUWMdkXCXWS7r7D83OVOZ/qcT60oh2S3kFJFFgAaz4ut25mIU9+Kt2qKofqaoTknwnyf/M5GbssJr+bZIPVtXlVfXW4T5qrLPuvjjJo5Ocv967kuQ/KK+mPv9XJnlMkrNHsDuvVF4BS9wDC2DlJ87TcIuoGYuqOjzJS5I8P8l+EmFK9k7yyiSvrKozk7w9yfu6+1rRrNMvwO5Lhncn/Lus3z2xXtTd7x1JJLtW1eOmsJ37j2T+r6qqx2RyT6wj12k3XtPdb/PTCCxRYAEAqaofTvKfM7l0BNbTA5P8QZK3VNV7kryxu78llunr7our6phMbux++JQ3/5Pd/e4RxXHPJJ9YsPm/crix+yeGn8tpelV3/56fQmA5l60AwAKrqsdW1aeT/N8orxiXHZO8LMk3q+qdVXWQSKZvuJxw2jd2f8HIyqtFnv+rkjw+072x+6uVV8BtUWABrPDa3rmYuT24q/avqv+TyeUhj5YII/fiJF+uqtdW1fbimK4p3hOrkzy3u98j9VHN/1WZlJhnTGFzr+zut0gd8KIJYMufSM/TdiBJUlU/m+S8JP9eGsyQXZL8TpIvDpc1Mc1fiN2XJDkqk3ciXSvP7+7/Le1Rzv9SifWFNdzMK9zzCliJAgtghdf5c7YdFv2Arjq+qs5N8rtDGQCz6D5JPllVH6yqQ8UxPUOJdUxWfyXW0sqrP5XyqOf/u5lcar4WK7Fe2t2/L2VgJQosAJhzVXWnqvrLJB9McphEmBPHJzm7qp4liulZthJrtUqsm5M8z8qrmZn/72b1Lyd8aXe/U7rA7VFgAcAcG258/dkkPyoN5tCOST5QVb9dVZ7XTslQYj0qyWnb+E/dlOQZyquZm//vJjk6yfu28Z+6Jsnxyitgc/lFD7DCc7QpbecWUbMWqurxSc7K9N/+HKbt55J8tKr2FMWUfkF2X5bJ5YQf2Mp/4sIkj+vuj0hzJuf/+u7+sUzeYOGKrfgnTk5yZHd/SJrA5lJgAcAcqqrXJzkliRf0LIonJjmzqhS2U9LdN3X3szMpyd+f5MbN+M8+n8nN2g/q7s9KceaPgT/K5NL0tyb57mb8J2dmsuruuO7+tgSBLbGDCABgvlTVf0vyOkmwgO6W5FNV9fjuPl0c09HdZyV5XlXtmORJSR6d5IAk+ya5LsnFSb6c5EPdfYHE5m7+r07yM0l+pqqelMmN3g9Msn+SG4b5Py/JB7v7GxIDtpYCCwDmSFW9McorFtudk5w8lFhniGN6uvumJB8eBot5DHwsycckAawFlxACrNAFOBczUwds1fOS/LwkIHsk+UhV7S0KAJgPVmABbJqbuDMzqurIJH8mia1yYyaXOV1/Ox+vHZ473SnJHZeNjf98x+Hf/Zdl43sb/Xnpa99PsluSXZPscjsfdzJVW+TA4Wfih0XhdzVyA2afAgsA5sP/EcGtXJvkK8vGWUkuz0bFVHdfO0sPqqp2yw8WWwckuVeS+yQ5Ism9h6+TPLmqfrq73yqK+dTd11SVILbcFSIAZo0CC2CF14pT2o5LCNm2A7XqDZmUFwv32jXJtzK5OfRXho9fTvKV7r5oTl+sX5tJOXd7x8QBmZRZS4XW0ud3m+K5bSx+q6o+7ObRc+07mdwwnC3LDGCmKLAAVn5xPA0uIWSrVdWhSX5hzh/mjdmwkuqcJF9Ncl53n+YI2MTJa1LgXZTklI2Olx2T3D/J4bl1sXWvzO8lijsleVOSZzoy5tYZcanolvqCCIBZo8ACWKEbmNJ2rMBiW8zjOw7elOTTSU5OclKS07tb0bsKhneJO20YG052VdsleWiS44bx6Ezu7TUvjq+qe3f3VxwFc+mkKLC2xDVJThcDMHMvzrrdvw/gNk+QVR9K8iNT2NQDuvuLEmcrjtF9klw2Jw/nc5msFvp4d59sdtf92NoxyTGZlFnHZlJuzbp3dPfLzO5cHq/3S/IlSWy2P+/ufy8GYNZYgQWwwnPiKW3HCiy21o/N8L6fl8mqiZOTnNTdV5vO8RhWan18GKmqPbJhddZxSe45gw/ruVX1yu7+FzM8d8fr2VX1qSSPkcZm+R0RALNIgQUAs+s5M7Svl2VSVp2c5KPdfYHpm6mC4OokfzGMVNXdkzwpG1Zo7TMDD2O3JE9J8iEzOpdensm7jW4vihW9v7s/JwZgFvm//gArvGab0nbc24ctNlw++KiR7+YNSf4oybHdvW93P7e7/1B5NQcnx+5vDXP5nO6+SyYl1juSfHfku/4Usze3x+Q5SV4hiRWdk+Q/iQGYVQosAJhNDxnxvp2c5HlJ9unuF3f3KaZrvnX3Kd39su7ePZN7B/75SHf1wWZrro/DP0jyXyVxm76d5LjuvkoUwKxSYAFsmntgMWZjK7DOSfL6JHft7uO6+/3dfaNpWjzd/eHhBtG7JfmJJB9N8v2R7N4Dh3dcZH6Pv19P8h8zvVXUs+CsJA/v7otFAcwyv8ABVngePGfbYb7sO4J9uCrJm4cXRvfr7t/u7u+YGpKku6/r7j/t7n+T5K5JXpnkH9Z5t+6Q5HCzM/fH3tszWQn4dWnknUl+qLsvEQUw6xRYADCb1vOd1D6Q5BndvVd3v6a7TzMdrKS7L+/ut3X3UUkOSfILSb68TrtzLzOyEMfcX3f3oUmeneSvkty0QA//y0nekMmK2Jd29w2OCGAeeBdCgPXnJu5sje9NeXvXJvnPSd7X3deIn63V3d9M8sYkb6yq52Ry8/fdprgLVmAt1vH2gSQfqKqdkzwmycOSPDTJnnP0MG9OcnaSM5N8qrvPNfPAPFJgAWzatO6B5S2/2arXZVPe3m6Z3Bz5nlX1J919pilgq06sk3fQ/PFM7o+1Hvdyu7NZWMAT5mQV0keHAcAMcgkhALC59k/ys0nOqKqzquq1VbW/WLg9VbVjVT2nqk5McnEm9057iGQAgM2lwAIAtsaRSX4nyYVV9bdV9eNVtZNYWFITj6uqdyW5JMn7kzwlrgAAALaCAgsA2NbnEk9K8idJLq2q91TVcVXlOcaCqqrDquqNSb6R5BNJXhiX7QEA28j/AQMAVsuuSZ4/jAur6s+S/HF3/7No5ltV7ZUN97V6mEQAgNWmwAIA1sKBSX4uyc9V1ReSvDfJn3b35aKZfVW1Y5JHJzk2yRMyKa28IQUAsGYUWADAWnvwMN5UVWcm+WSSU5N8sruvEc/4VdX2mZRUxw7jqCQ7SgYAmBYFFgAwLdtlQ5n16iRdVWdlKLMyKbSuEtM4VNX9M1lddWySxybZXSoAwHpRYAEA66WSPHAYP51JoXV2NhRan+juK8Q0pcmounuSJ2bDZYH7SQUAGAsFFgAwFpXk/sP4T0lSVf+cDYXWKd19mZi2MeSqg5LcN8l9Nhp3kQ4AMFYKLABgzJbKlZ9Kkqq6LMm5wzhv2edf7e7rxDVRVdsluWd+sKS6T5LdJAQAzBoFFgAwS+4yjKM2/sYilltVdack98qkmFq+qupeSe7kcAEA5oUCC2DTekrbuUXUsCpWKreS5Ook1ye5Yfh4/Sb+fF2SGzf62tLXV/u8sF0mK6J2XTZ2Gb62y0Zfv62xk2kHABaBAgtg02pK29lO1DAVewwDAIAZ40UTAAAAAKOmwAIAAABg1BRYAAAAAIyaAgsAAACAUVNgAQAAADBqCiwAAAAARk2BBQAAAMCoKbAAAAAAGDUFFgAAAACjpsACAAAAYNQUWAAAAACMmgILAAAAgFFTYAEAAAAwajuIAABmUk9pO69I8o0kxw3j/qJnFX0pyclJTkpycJK3zdHPDgCwihRYAMBKruvuE5OcmCRVtW82lFnHJbmbiNgC386krDo5yce6+7Klb1TVC6a0D2UaAGD2KLAAYDbVemynuy9N8r5hpKoOz4Yy6/FJ9jQ1LHNVkk9kWGXV3V8VCQCwNRRYAMBW6+5zk5yb5O1VtV2Sh2RDofXoJDtKaaHclOQz2bDK6vPdfYtYAIBtpcACAFbFUFScNozfqqodMymxlgqth8QbyMybW5J8PhvuY/Xp7v6eWACA1abAAgDWRHfflEmxcXKSn6+qXZM8IMmDlo0jY5XWrLgxk5uun7FsfKG7bxQNALDWFFgAwFR093VJ/n4YSZKq2j7JvTMpsx6cDcXWPhJbV5fl1kXVGUm+7HJAAGC9KLAAgHXT3TcnOWcY71v6elUdmFuv1HpQknvGO8it+hQkOS8bSqozk5zR3ReKBgAYEwUWADA6Q4FyYZITl75WVbtlwyWIS6u17p/kThLbLDcl+WKGkiobLgG8QTQAwNgpsACAmdDd12byDnefWfpaVVWS/ZIcsGwceBt/3ifzu3qrM7nk76JhXLiJzy/t7nYkAQCzSIEFAMysoZD5zjBO39Tfq6o7JLlrVi65Dkiy+8ge4jW5dQl10W38+aLu/r6jAQCYZwosgBVeG09pOy+rqkvFzRZ6nAi24Ie5+/8l+dYwVlRVu2RyWeLGY8fh4/ZJdtnE95ZGknxvGDct+3xpXJ/k5k1873tJbnJpHwDABgosgBVex05pOy8XNYxHd1+fScEEAMBIbCcCAAAAAMZMgQUAAADAqCmwAAAAABg1BRYAAAAAo6bAAgAAAGDUFFgAAAAAjJoCCwAAAIBRU2ABAAAAMGoKLAAAAABGTYEFAAAAwKgpsAAAAAAYNQUWwKZ9XwQAAADrT4EFsGmXiwAAAGD9KbAANu0SEQAAAKw/BRbApn1BBAAAAOtPgQWwaR9LcrMYAAAA1pcCC2ATuvv6JH8mCQAAgPWlwAJY2RuS3CIGAACA9aPAAlhBd58bq7AAAADWlQIL4Pa9KskXxQAAALA+FFgAt6O7r0zyuCSnSwMAAGD6FFgAm2EosY5JcpI0AAAApkuBBbCZuvuG7n5iJpcUXigRAACA6VBgAWyh7v697j4oyY8meU+Sq6UCAACwdnYQAcDW6e4TkpyQJFV1lyR3TbKXZJiSFyT5D2IAAGARKLAAVkF3X5bkMkkwLVX1OCkAALAoXEIIAAAAwKgpsAAAAAAYNQUWAAAAAKOmwAIAAABg1BRYAAAAAIyaAgsAAACAUVNgAQAAADBqCiwAAAAARk2BBQAAAMCoKbAAgJUcLgKm5F4iAAA2RYEFAKzkv1TVm8TAWqqqNyf5eUkAAJuiwAIAbs9rquofquowUbCaqureVfW5JK+SBgCwEgUWALA5HpXk3Kr6y6p6hDjYFlX1mKr6qyRfTvIwiQAAt0eBBQBsiR9N8tmq+lRVPVUcbK6aeGZV/WOSU5M8XSoAwObaQQQAwFY4JskxVXVekj9K8q7uvlQsbKyqDkzy4iQvTHKwRACArWEFFgCwLQ5L8ptJLqmqv66qF1TVLmJZbFW1e1W9tKo+nuSCJL8S5RUAsA2swAIAVsvThvHuqjohyV8l+XB3XyWa+VdV+yV5RpLjkzxZIgDAalJgAQBr4fhhpKo+neQjSU7q7s+LZn5U1Q8l+eEkT4mbsQMAa0iBBQCstaOHkapKkk8l+VySzyT5dHdfJqLxq6p7JXnkMB42fAQAmAoFFgAwbY8Zxs8mSVWdm0mp9akkp3b3N0W0/qrqPsvm6jFJDpIKALBeFFgAwHo7fBgvSpKqujTJF5OcNYwvJvlSd39PVKuvqnZN8sAkRyZ5wPDxyCS7SwcAGAsFFgAwNvsmOXYYS26pqvOTnJPk7OHjOUn+ubtvFNntq6rdk9wvyX03GneTDgAwdgosAGAWbJfksGE8ffk3hhVb30hyYZJvJ/nW8PHCJFcmubK7L5nncKrqwCR7DeNuw7j7Rp/v4TACAGaVAgsAmHX7DmOThpvHX5uh0EpyRZKrbmNcOXy8ehhXdfeV03gQVbVvJiXTnplcvrdUSO15G2PvZd/fySEAAMw7BRYAsCh2G8bBW/IfLSu/rs6k3LomyS2r8BxsqYzaI0ooAIDbffIEAMDKlsov94sCAFgH24kAAAAAgDFTYAEAAAAwagosAAAAAEZNgQUAAADAqCmwAAAAABg1BRYAAAAAo6bAAgAAAGDUFFgAAAAAjJoCCwAAAIBRU2ABAAAAMGoKLAAAAABGTYEFAAAAwKgpsACAlZyc5PNiYI2dPhxrAAC3SYEFALOpp7SdP+nuhyXZM8kzk7w9ybniZxudm+QPkjwryZ7d/dAkfyoWAGBTdhABAMykmuZ2uvvqJB8cRqrqoCRPTHJckmOT7GdKWMElSU5JclKSj3X3BSIBALaEAgsA2GJDAfHuYaSq7p9JmXVckscm2VVKC+26JKdmclngSd39RZEAANtCgQUAbLPu/lKSLyV5S1XtkOSR2VBoPTLJHaQ01/5fks9mssLq5CT/2N3fFwsAsFoUWADAqhqKi88M41erapdMVmUtFVpHSmn2pznJFzMpq05O8snuvl4sAMBaUWABAGtqKDb+Zhipqt2SPCjJA5aN+8dlh2N1XSZl1VnLxpndfa1oAIBpUWABAFM1FB9/N4wkSVVVkntkQ6H1wOHjofGuydNyS5Kv5dZF1Vndfb5oAID1psACANZdd3eS84fxoaWvV9VOmVxy+ICNxp5S2yZX5gdXVZ3V3TeJBgAYIwUWADBa3X1jkn8axr+qqr2S3G2FcVCSOy5obN9LcmGSb29qdPeVji4AYJYosACAmTMUMFcmOXNTf6eq9svKJdcBSbafsYd+c5KLsnI5dYkjBACYNwosAGAuDUXOJUlO29TfGd4hcZdMbiC/8ee39bXb+/7Sx2Ry8/Prh3HdRh+v34Lv/+vXvNMfALCoFFgAwMIaCqHrk1wqjYXxy1X1y2JYeN9NcnGSryf5SJITuvsisQCMl3f1AQAAFs2dk9w7yQ8neVuSb1fVH1bVvqIBGCcFFgAA4HVR8qIkX6+ql4oDYJwnagAAAJKdk/yvqnqfKADGRYEFAABwa8+tqg+IAWA8FFgAAAA/6FlV9ToxAIyDAgsAAOC2/VpVHSQGgPWnwAIAALhtOyb5DTEArD8FFgAAwKb9WFXtLgaA9aXAAgAA2LTtkzxRDADrS4EFAACwsoeKAGB9KbAAAABW5kbuAOtMgQUAALAyBRbAOlNgAQAArGxPEQCsLwUWAAAAAKOmwAIAAABg1BRYAAAAAIyaAgsAAACAUVNgAQAAADBqCiwAAAAARk2BBQAAAMCoKbAAAAAAGDUFFgAAAACjpsACAAAAYNQUWAAAAACMmgILAAAAgFHbQQQAACyQX+3uXxHDfKiqPZJcJQmA+WcFFgAAAACjpsACAAAAYNQUWAAAAACMmgILAAAAgFFTYAEAAAAwagosAAAAAEZNgQUAAADAqCmwAAAAABg1BRYAAAAAo6bAAgAAAGDUFFgAwEqeWVU7iYG1NBxjz5QEALApCiwAYCVPS/LZqrqPKFgLVfXAJKcNxxoAwG1SYAEAt+fIJOdU1c9X1e7iYDVU1Z5V9UtJzkhyX4kAACtRYAEAm+uNSS6uqv9RVQeLg61RVYdV1f9MclGSX5MIALA5FFgAwJbYKckrknyjqv6yqo4SCZujqp5QVR9Jcm6SlyfZUSoAwOZSYAEAW+tHk3ymqs6pqtdW1T4iYbmqOrCqfrGqvpbk5CRPlQoAsDUUWADAtrpPkt/J5PLCj1XVi6tqT7Espqrat6peUVWnJvlWkl9PcqhkAIBtsYMIAIBVfF7xxGG8s6pOSnJikhO6+5vimV9Vdd9MVlc9PcnREgEA1uKJJgDAWjhuGG+uqn9O8tdJ/jHJp7v7MvHMrqo6JMkjkxyV5BlJ7i4VAGAtKbAAgGm4zzCSJFV1QZLPDuOMJKd191ViGp+q2jfJw5M8KMmjkjwiyb6SAQCmSYEFAKyHg4bxzKUvVNW3kpye5PNJvpTkrO4+X1TTU1X3SXLkMB6a5CFJ9pMMALDeFFgAwFjcfRjPWPpCVV2XocwaPp6d5Jzu/o64tl5VHZzkvsM4MskDkjxYMgDAWCmwAIAx2zWTy9YetfyLVXVVhjIrybmZvNvdt5N8q7svFFtSVfdIcrdMSsGDkhyRDaXVLhICAGaJAgsAmEV7ZvJudz/wjndVlSTfHMZFmZRbFye5YBgXdve3Z/nBV9WhmZRSB2bD5ZgHJjkgySFJ7uoQAQDmiQILAJhHBw/jNg0l19VJrhrGlcs+vyLJ9Ulu2mjcuOxjb+P+bZ9kpyQ7Lvu4fNw5k5Jur+Hj8s93Nb0AwKJRYAEAi2qPYdxDFAAA47adCAAAAAAYMwUWAAAAAKOmwAIAAABg1BRYAAAAAIyaAgsAAACAUVNgAQAAADBqCiwAAAAARk2BBQAAAMCoKbAAAAAAGDUFFgAAAACjpsACAAAAYNQUWAAAAACMmgILAAAAgFHbQQQAwAp+P8kNSZ6U5IHiYA2cmeRjSXZO8p/EAQDcFgUWAMymntJ2Ptfd70nyc1W1d5Jjkxw3jHuYBrbC15OcnOSkJCd19xVJUlUvEA0AsCkKLACYTTXt7QxFwweGkaq6RzaUWU9Iso9p4TZcnuSUDKVVd58vEgBgSymwAICt0t1fT/LOJO+sqsrkEsOlQuuYTC4JY/HckOTvMllhdXKSM7q7xQIAbAsFFgCwzYaC4oxh/G5V3THJD2VDofXwJNtLai59P8lp2VBY/X13/4tYAIDVpMACAFbdUGCcOoxfqqqdkzwgyYOTPGT4eP8kd5LWTLkpyZeSfGHZOLO7bxQNALCWFFgAwJrr7huS/OMwkiRVtUOS+2RSZi2NByXZXWKjcE0mK+qWl1XndPfNogEApk2BBQCsi+7+fpIvDuO9S1+vqkNz61LrwUnuKrE1dXFuXVR9wc3WAYAxUWABAKMyFCfnJ/nLpa9V1b7ZcOnh0rhnpvdujHMTb5LzcuuVVad396WiAQDGTIEFAIzeULB8dBhJkuFG8Qfdxjhw2ef7J9luQWK6Ocl3klyY5IJl41Z/doN1AGAWKbAAgJk0FDFLq7VuU1Vtn8nlh5squA5KckCSO4784X4vyUW57VJq6fOL3Z8KAJhXCiwAYG4Nhc5S0bNJVbVjkp2T7HQbH3faxPd2TLLLJv5OktyQ5MaNPi59fuPtfO9W/21332Q2AYBFpsACABbeUBApiQAARmo7EQAAAAAwZotMccIAAB8iSURBVAosAAAAAEZNgQUAAADAqCmwAAAAABg1BRYAAAAAo6bAAgAAAGDUFFgAAAAAjJoCCwAAAIBRU2ABAAAAMGoKLAAAAABGTYEFAAAAwKgpsAAAAAAYNQUWAAAAAKOmwAIAAABg1BRYAAAAAIyaAgsAAACAUVNgAQAAADBqCiwAAAAARk2BBQAAAMCoKbAAAAAAGDUFFgAAAACjpsACAAAAYNQUWAAAAACMmgILAAAAgFFTYAEAAAAwagosAAAAAEZNgQUAAADAqCmwAAAAABg1BRYAAAAAo6bAAgAAAGDUFFgAAAAAjJoCCwAAAIBRU2ABAAAAMGoKLAAAAABGTYEFAAAAwKgpsACAlewsAhxrAMB6U2ABACv5/ar6CTGwlqrqhUl+XxIAwKYosABgNt0yxW29t6r+pKp2FTurqaruXFUfSPKuKW72ZskDwOxRYAHAbPrulLf340m+UVVvqKr9xc+2qKoDquq3knwjybOmvPlrzAAAzB4FFgDMpqvXYZt7J/mFJN+sqndX1X1NA1uiqh5cVe9L8s0k/znJnuuwG1eZCQCYPQosAJhNF63jtu+Y5AVJzq6qj1XVc00Hm1JVO1XV86vqk0lOT/LcJDus4y5dYFYAYAafU3S3FABg9kqB/ZNcPKJduibJHyf58+7+jBmiqp6Q5NlJnpdkTPdP26u7rcKan+Nsj0xnVd2Z3f0giQOs4zlfgQUAM/vC7eIkY7wf1QVJ/iLJXyizFu6YPDbJc5Icn8klp2Pzje6+h5maq2NOgQWwIFxCCACz6+SR7tdBSV6V5NNVdVlVvaeqnuVdDOdPVe1VVT9RVf+nqq5OclKSF2ec5dWYf2YAgNt73mEFFgDM6C/xqqcn+asZ2uWbk3wpyWeXjXPak5FZOd62T/LAJI9I8shhHJGkZuhhPLG7TzKbc3VcWoEFsCjnfM8ZAWCmX7xdkWSvGX4I1yc5M8lpSc5Icnp3n2lmR3FsPSLJQ5I8IMnDkzxsxh/Sxd19gJmdu+NUgQWwIHYQAQDMtLcl+a8zvP+7JDlqGEsvSL+X5J+TnDWMLyY5q7u/Y7rXpAA4OJOS6shlH+81h88T/7vZBoAZfs5iBRYAzPAv8qo9k3wnyR0X4OFekeTsJOcM4+xMLkFUbG3esXJwkvsmud/wcWnstgAP/9okB3b3tY6EuTuurcACWBBWYAHADOvuq6rq15K8YQEe7t5JHjOM5S9gr0/yrWF8exjfSvLNJBcl+VZ33zjnL+L3THJgkgOSHJLkbknunskN9Q9Ocs8F/1H5eeUVAMz48x0rsABgDn6hV30pk5U13LZrklwwjAuHj1dmsnLjquWfd/fFI5jPXZLsmcn9zfbc6PO9MimoDsqktDooyc6meJM+091Hi2Fuz31WYAEsCCuwAGA+/HiSL4hhk3Yfxu2WfFX/+qZ61yW5adm4cdnH7w1j+feX/nxdkjskuVOSHTcx7pRkp+HznTb6njJq9Vyf5PliAIDZp8ACgDnQ3WdU1UuTvEMaq2bXYTC7nt3d54sBAGbfdiIAgPnQ3e9M8i5JQJLkV7v7RDEAwHxQYAHAfHlJkj8TAwvuLd39K2IAgPmhwAKAOdLdt3T3jyd5pzRYUG/o7leLAQDmiwILAOZQd780yYszubE4LIJrkzylu39JFAAwfxRYADCnuvuPkhyd5GJpMOfOSfLg7v6/ogCA+aTAAoA51t2nJXlQks9Jgzn1kSSP6O6viQIA5pcCCwDmXHdf2t2PSPKr0mCOXJ3kFd39b7v7enEAwHxTYAHAghjele3AeJdCZt9bk9yju39fFACwGBRYALBAuvui4V0KH53kKxJhxvx9kiO6+2e6+2pxAMDiUGABwALq7r/v7iOSvD7JVRJh5L6d5Ce7+9HdrXgFgAWkwAKABdbdv53k7kl+PsnlEmFkvpbkRZlcLvhucQDA4qrulgJM84euatckRyU5IMn+SXaUClvhxiQXJ7kgyd93900iYRXOTzsleW6Sn8zkEkNYLyckeVd3f0QU3M55a49MZxXpmd39IIkDrOM5X4EFU3uCdXySFyd5ijRYZTcm+XiSt3T3J8TBKp2zjsikyHp+kv0kwhR8Lck7k7ynu78jDjbzXKXAAliUc74CC6byIvBtSY6VBlNwQpJXd/c3RcEqnseeluQnkvx7abDKrk7y/kxKq8+Kg604PymwABblnK/AgjV9UvXiTP5vMkzTNUle2N0niIJVPqftluTfJXlhkmMkwla6IcnfJvnj7v6wONjG85ICC2BRzvkKLFizJ1RvzOSmyLBe3tDdvyQG1ugcd+ckT0zytCT/Ji4z5HZe/Cf5WJKPdvcp4mAVz0UKLIBFOecrsGBNnkz9hyR/LAlG4De7+7+IgSmc9x6Q5LhMSq0flsjCuzLJyUk+nORj3X2pSFijc48CC2BRzvkKLFj1J1JHJPlnSTAiv9XdVgMy7XPhsUmenORxSR4ukbl3bZJ/zKS0Oqm7Py8SpnSuUWABLIgdRACr7jdFwMi8vqqqu18vCqalu0/OpMxYepH50CQPS3J0Jm9qcVcpzbQvZvLup59Lclp3nycSAGAtWYEFq/kDVXVIkq9LgpF6U3e/VgyM5Hx5v0yKrPsnOXQY95DM6Fw//F47P8nXkpyW5OPdfZloGMm5xAosgAVhBRasrmeJgBH72aq6pbt/ThSst+4+O8nZt/Fi9GFJHpLkoUmOTHJYkrtIbCq+nuTcJKdnsrLqjO4+XywAwBgosGB1PVsEjNzrqipKLMaqu0/LZJXPv6qqXTIpsg5Jcngmq7XuuWywea5L8tXcekXV15J8vbu/Jh4AYMxcQgir+QNV5QeKWfHfu/tnxcCcnHsPTXJwkn2S7DWMgzIpuw7PpPiad9clOW8YX01yeSaXVV2Z5JIk57vsjzn9+XcJIcCCsAILVu8J1F5SYIa8pqputhKLeTBc5nb+7Zyj75Jk70zKrX2WjT2TfG/4a7tkcrniUhF21yT7Jtl5Sg/l2iQXZ1I43TJ87eYkVyS5bBhXZFJOXTa8aL8iyRXdfa0jAQCYZwosWD13FgEz5nVVtb2VWCyCYfXRVq1Aqqqrk+y+xrt4TXfvYaaAzTgn7ZLkqUkenuSAJPt5XTc1NyX5TpILkpza3R8XCUyPEx3AYntNVW3X3a8WBQCMV1UdnOSNSZ4njVH4har6bpJ3JPk1K2Fh7W0nAoCF96qqerMYAGCcqupXknwjyquxuXOS1yb5elX9mDhgbSmwYBWfW4iAGfaqqvofYgCAET25rNqvqv4hyS9LY9T2TvKnVfWuqtpJHLA2FFgALHmFEgsAxqGqDklyWpJHSWNmvDDJiVW1vShg9SmwAFhOiQUA62wor/4uyUHSmDmPT/IWMcDqU2ABsDElFgCsE+XV3DyXOloMsLoUWABs6onXO8QAANNTVQdFeTUvvEEOrDIFFgCb8hIlFgBMh/Jq7jysqn5IDLB6FFgArESJBQBrbFl5dYg05sqPigBWjwILgNujxAKANaK8mmv/TgSwehRYAGwOJRYArLKq2j/Kq3l2SFXtLAZYHQosADaXEgsAVonyamEosGCV7CACWDU9pe18IclrxD1X/jDJPWdkX19SVd/v7v9o2gBg6wzl1aeSHCaNuafAglWiwIJVfC4ype1c092fFPdcPYm9fsZ2+eVVtUN3v9TsAcAW/95fWnmlvFoMrnoCP0wArCOXEwLAFlJeAWw9BRYAW+slVfWOqipRAMDKquouUV4BbDUFFgDb4iVJ/liJBQCbNpRX7nkFsA0UWABsq+dHiQUAt2lZeXWENAC2ngILgNWgxAKAjSivAFaPAguA1aLEAoBBVe0V5RXAqlFgAbCalFgALLyhvPpklFcAq0aBBcBqU2IBsLCWlVdHSgNg9SiwAFgLSiwAFo7yCmDtKLAAWCtKLAAWhvIKYG0psABYS0osAOZeVe0e5RXAmtpBBLBqekrbuUXUjp0Z8/wk30/yIlMNsEFVHZTkGZnc6Hv/JHsnUfiP8/XMYVX1yRW+f3CSQ0aUy0eSvMnhsaK3JHmgGMAJHwCW+8mqSncrsYCFV1XHJfmNJI+QxszYJcljZ2Rf/7q7n27Kbvfn8GopwGxRYMEM/r4VATPqJ6vqDt39fFEAC/qCeb8k70iiXGCt/I3yCphXCixYxeelc7Yd5u/YGYOfqKo7JHled7epBxbmRF91dJITkuwjDdbIiZlckgowlxRYAEzbc4YXc0osYCFU1WOTnJxke2mwRk5M8ozu/r4ogHnlXQhh9fScbYf5O3a+MaLH/Jwk7zX1wLyrqnsl+esor1g7H+7upymvgHmnwIJVfI46Z9th/jwpyfkj2p8fr6r3mxZgzr0/yW5iYI2cmOSZYgAWgQILYHFckuSojKvEek5Vvb+qFLPA3Kmq45M8RBKsEZcNAgtFgQUwgtc409pOd4+yxEryPiUWMIdeKQLWiPIKWDgKLIAFo8QCWHtVtVeSx0iCNaC8AhaSAgtgAS0rsb4yot1SYgHz5Efixu2svhOivAIWlAILYEENJdbRUWIBrIUHiIBVdkKSZymvgEWlwAJYYN19ecZbYlm5AMyynUXAKloqr24WBbCodhABrF4XMKXt3DKNjVTVC5L88oLP6au7+0Pzfux09+VV9ZgkpyY5YiTZPyeTm9s/x6kFmFF3EgGr5APd/WwxAItOgQWrZ1qXPE1z5eQhpnUxjp3uvrSqjkny6ST3Hkkuz66qO8b/cQZgcZ2Q5HliAHAJIQCDkV5OeHySP3c5IQALyGWDAMsosAD4V0osABgF5RXARhRYANzK/2/v/kJ1S+gyjj+L9kUQqHkRBgV6GQTKZDddNKcLu2iKRsqLCmEqETGIuuoPIeONWfSPDKI/OPtCbECQY0wFEsyRCDKLMmiabmR0KMdJR0cdMqc5vy7OlibO3sfZp7XX+7zv+/mAoN4s9rPXcq/19V3viFgAsFMPR7wCuI2ABcBtRCwA2ImHk/y4eAVwOwELgHOJWACwqa/FqzEFwO0ELAAuJGIBwCbEK4CvQ8AC4I5ELAC4UuIVwEsgYMGKz/kbHeemqZ07W587ZxHre5P8S9Fub0zyJ04fAPbYH8zMj4lXAF+fgAXrWVy3HPK5MzNP51bEavok1puWZfngsiwnTiMA9sgk+eWZeZspADwIA7D23Xbv64TXRSwA9sDzSd6X5Dtn5lfNAfDSCViw4rP9RsfxCqFzZ6fnzoteJ3y8aMP7cus7RACgyeeTPJbkQ0l+MsmrZubNM/OYaQAux/9bDevxCiHt584Xl2U55B1/ZFmWR5LcPzP/7bQCjsT3zcwNMwBw6DwIA3BI7ovXCQEA4OAIWAAcGhELAAAOjIAF6/EdWLSfO8fkviQfMAMAABwGAQvW4zuwaD93js39y7L8nhkAAGD/eRCG9fgEFu3nzjH6mWVZ3mIGAADYbwIWrMcnsGg/d47VbyzL8kozAADA/vIgDMChe3mSXzEDAADsLwELgGPw1mVZvsEMAACwnwQsAI7BNyW5ZgYAANhPAhYAx+K7TAAAAPtJwALgWHybCQAAYD8JWAAcCwELAAD21IkJgPPMzGmSU0ts4ssm2MQrTQAAAPvJJ7AAdu8zJgAAALiYgAWwe0+ZAAAA4GICFsDufdQEAAAAFxOwAHbvg0meNwMAAMD5BCyAHZuZLyX5Q0sAAACcT8AC6PCOJM+ZAQAA4HYCFkCBmXkmydssAQAAcDsBC6DEzLwvyR9ZAgAA4P8SsGA9s9Fxbpr6gE+imbcmecQSAAAA/0vAgvUsrltW8sNJ3msGAAAAD8IAlWbm5sz8dJJrSf4s2326DwAAoNKJCWA1XiFk3RNq5iNJPrIsy7cnuT/JDyR5TZJvTfIyCwEAAMdCwIL1eIWQKzEzTyZ5z9m/Du/CWZbXJPmE3zTAXXl0WRYrAHDwPAgDAAAAUE3AAgAAAKCagAUAAABANQELAAAAgGoCFgAAAADVBCwAAAAAqglYAAAAAFQTsAAAAACoJmABAAAAUE3AAgAAAKCagAUAAABAtRMTAOdZluXVVmBmnrACAACwawIWcJFrSR4yw9FbTAAAAOyaVwgBAAAAqCZgAQAAAFBNwAIAAACgmoAFAAAAQDUBCwAAAIBqAhYAAAAA1QQsAAAAAKoJWAAAAABUE7AAAAAAqCZgAQAAAFBNwAIAAACg2okJYDWz0XFumhrXDgBnPp7kC2aAS3tdkpebAfaHgAXrWTY6jk9O4toB4Gt+bmZumAEuefOxLDeS3GsJ2B8ehAEAAACoJmABAAAAUE3AAgAAAKCagAUAAABANQELAAAAgGoCFgAAAADVBCwAAAAAqglYAAAAAFQTsAAAAACoJmABAAAAUE3AAgAAAKDaiQmAO7hhAgAAAHZNwALONTOnSU4tAQAAwK55hRAAAACAagIWAAAAANUELAAAAACqCVgAAAAAVBOwAAAAAKgmYAEAAABQTcACAAAAoJqABQAAAEA1AQsAAACAagIWAAAAANUELAAAAACqnZgAVjMbHeemqXHt3JVXLMtyzdy4X4LLW5bl/oP6wzNz3W8VwA0ZHO293UbH8clJXDt357VJHjU3wF357SSvPpCf5YkkAhbAnvEgDAAAAEA1AQsAAACAagIWAAAAANUELAAAAACqCVgAAAAAVBOwAAAAAKgmYAEAAABQTcACAAAAoJqABQAAAEA1AQsAAACAagIWAAAAANVOTACrmY2Oc3OLgyzL8sBmw82cHtLPc1An9Qa/mw2vHfA3BABgTwlYsJ5lo+Ns+cnJhzY4xjs3+lnuTfKA0/TSTg/o2oFmz5gAAKDjQRgAgPN92gQAABcTsAAAdu/jJgAAuJiABQCwex82AQDAxQQsAIDdeiHJX5oBAOBiAhYAwG6dzsxzZgAAuJiABQCwO19K8otmAAC4MwELAGA3XkjyozPzWVMAANyZgAXrmY2Oc9PUuHbgIDwwM768HQDgJTgxAaxm2eg4wjOuHdhvX0nyppl5xBQAAB6EYWtzYMeBOKdhdf+Y5Jp4BQBwOT6BBQBwtb6Y5E+TvHdmHjUHAMDlCViwf3xaBe7OJ5OcmoGNfDnJp5N8amb+yhwcgOsmAGCXBCxYj+/Agu5r54mZedDcAJc3Mz9vBQB2yYMwAAAAANUELAAAAACqCVgAAAAAVBOwAAAAAKgmYAEAAABQTcACAAAAoJqABQAAAEA1AQsAAACAagIWAAAAANUELAAAAACqCVgAAAAAVDsxAXAHDyZZXvSf50X//rz/fin+WT6Z5J1+pQAAAPtHwALONTOnB/bzPOi3CgAAsJ+8QggAAABANQELAAAAgGoCFgAAAADVBCwAAAAAqglYAAAAAFQTsAAAAACoJmABAAAAUE3AAgAAAKCagAUAAABANQELAAAAgGoCFgAAAADVBCwAAAAAqglYAAAAAFQTsAAAAACoJmABAAAAUE3AAgAAAKCagAUAAABANQELAAAAgGoCFgAAAADVBCwAAAAAqglYAAAAAFQTsAAAAACoJmABAAAAUE3AAgAAAKCagAUAAABANQELAAAAgGoCFgAAAADVBCwAAAAAqglYAAAAAFQTsAAAAACoJmABAAAAUE3AAgAAAKCagAUAAABANQELAAAAgGoCFgAAAADVBCwAAAAAqglYAAAAAFQTsAAAAACoJmABAAAAUE3AAgAAAKCagAUAAABANQELAAAAgGoCFgAAAADVBCwAAAAAqglYAAAAAFQTsAAAAACoJmABAAAAUE3AAgAAAKCagAUAAABANQELAAAAgGonJoDVzEbHed2yLDfMzQH5RhMA3LXfWZblC2aAy99TmwD2i4AF61k2Os4rktxrbgAgyWtNAMAx8AohAAAAANUELAAAAACqCVgAAAAAVBOwAAAAAKgmYAEAAABQTcACAAAAoJqABQAAAEA1AQsAAACAagIWAAAAANUELAAAAACqCVgAAAAAVBOwYD1fMQG4RgHO/JcJAPcfsB4BC9bzlAnANQpw5jMmgKM3/rcA1iNgwVp/nWYmyecsAbUELGBLHlqBp8+eEYAVCFiwrr83AdT6mAkA9wSAew/YTwIWrOu6CaDSV5P8uRmADX00yWfNAJ4NgHUIWLCu9yd51gxQ53Rm/tMMwFbOXhv6XUvA0XomycNmgPUIWLDuzeqzSd5tCajyfJJ3mAHYgd+K78eEY/WumXnODLAeAQvW95tJ/tYMUOPtM+PLlIHNnT28vjm3/klkwPH46/gEJqxOwIL1b1afT/KDSZ60Buzce2bmj80A7PC+4C+S/JIl4Gg8meSHzp4JgBUJWHA1N6v/keT7k/ybNWBn3j8zP2sGoOC+4NeS/Lol4OD9e5I3zMznTQHrE7Dg6m5WH0/y+iT/bA3Y3Ltn5ifMABTdF/xCkrfH64RwqP4pyT0z86+mgKshYMHV3qw+leSeJG9J8rhF4Eq9kOQDZzePXtcBGu8Lfj/JdyR5KMlXLQIH4bEkP5Xk9b5zE67Wcuuf8AtscsEty3cneWOSN+TWp7OA/59nkvxNkutJPjQzT5sE2JN7gm9Oct/ZfcH3JHmVVWBv/F2SDye5PjMfMwds9LdTwIKd3rzek+RlloC78omZ+ZQZgAO5J/iW3Pp01mINqPXszPyDGWBHfysFLAAAAACa+Q4sAAAAAKoJWAAAAABUE7AAAAAAqCZgAQAAAFBNwAIAAACgmoAFAAAAQDUBCwAAAIBqAhYAAAAA1QQsAAAAAKoJWAAAAABUE7AAAAAAqCZgAQAAAFBNwAIAAACgmoAFAAAAQDUBCwAAAIBqAhYAAAAA1QQsAAAAAKoJWAAAAABUE7AAAAAAqCZgAQAAAFBNwAIAAACgmoAFAAAAQDUBCwAAAIBqAhYAAAAA1QQsAAAAAKoJWAAAAABUE7AAAAAAqCZgAQAAAFBNwAIAAACgmoAFAAAAQDUBCwAAAIBqAhYAAAAA1QQsAAAAAKoJWAAAAABUE7AAAAAAqCZgAQAAAFBNwAIAAACgmoAFAAAAQDUBCwAAAIBqAhYAAAAA1QQsAAAAAKoJWAAAAABUE7AAAAAAqCZgAQAAAFBNwAIAAACgmoAFAAAAQDUBCwAAAIBqAhYAAAAA1QQsAAAAAKoJWAAAAABUE7AAAAAAqCZgAQAAAFBNwAIAAACgmoAFAAAAQDUBCwAAAIBqAhYAAAAA1QQsAAAAAKoJWAAAAABUE7AAAAAAqCZgAQAAAFBNwAIAAACgmoAFAAAAQDUBCwAAAIBqAhYAAAAA1QQsAAAAAKoJWAAAAABUE7AAAAAAqCZgAQAAAFBNwAIAAACgmoAFAAAAQDUBCwAAAIBqAhYAAAAA1QQsAAAAAKoJWAAAAABUE7AAAAAAqCZgAQAAAFBNwAIAAACgmoAFAAAAQDUBCwAAAIBqAhYAAAAA1QQsAAAAAKoJWAAAAABUE7AAAAAAqCZgAQAAAFBNwAIAAACgmoAFAAAAQDUBCwAAAIBqAhYAAAAA1QQsAAAAAKoJWAAAAABUE7AAAAAAqCZgAQAAAFBNwAIAAACgmoAFAAAAQDUBCwAAAIBqAhYAAAAA1QQsAAAAAKoJWAAAAABUE7AAAAAAqCZgAQAAAFBNwAIAAACgmoAFAAAAQDUBCwAAAIBqAhYAAAAA1QQsAAAAAKoJWAAAAABUE7AAAAAAqCZgAQAAAFBNwAIAAACgmoAFAAAAQDUBCwAAAIBqAhYAAAAA1QQsAAAAAKoJWAAAAABUE7AAAAAAqCZgAQAAAFBNwAIAAACgmoAFAAAAQDUBCwAAAIBqAhYAAAAA1QQsAAAAAKoJWAAAAABUE7AAAAAAqCZgAQAAAFBNwAIAAACgmoAFAAAAQDUBCwAAAIBqAhYAAAAA1QQsAAAAAKoJWAAAAABUE7AAAAAAqCZgAQAAAFBNwAIAAACgmoAFAAAAQDUBCwAAAIBqAhYAAAAA1QQsAAAAAKoJWAAAAABUE7AAAAAAqCZgAQAAAFBNwAIAAACgmoAFAAAAQDUBCwAAAIBqAhYAAAAA1QQsAAAAAKoJWAAAAABUE7AAAAAAqCZgAQAAAFBNwAIAAACgmoAFAAAAQDUBCwAAAIBqAhYAAAAA1QQsAAAAAKoJWAAAAABUE7AAAAAAqCZgAQAAAFBNwAIAAACgmoAFAAAAQDUBCwAAAIBqAhYAAAAA1QQsAAAAAKoJWAAAAABUE7AAAAAAqCZgAQAAAFBNwAIAAACgmoAFAAAAQDUBCwAAAIBqAhYAAAAA1QQsAAAAAKoJWAAAAABUE7AAAAAAqCZgAQAAAFBNwAIAAACgmoAFAAAAQDUBCwAAAIBqAhYAAAAA1QQsAAAAAKoJWAAAAABUE7AAAAAAqCZgAQAAAFBNwAIAAACgmoAFAAAAQDUBCwAAAIBqAhYAAAAA1QQsAAAAAKoJWAAAAABUE7AAAAAAqCZgAQAAAFBNwAIAAACgmoAFAAAAQDUBCwAAAIBqAhYAAAAA1QQsAAAAAKoJWAAAAABUE7AAAAAAqCZgAQAAAFBNwAIAAACgmoAFAAAAQDUBCwAAAIBqAhYAAAAA1QQsAAAAAKoJWAAAAABUE7AAAAAAqCZgAQAAAFBNwAIAAACgmoAFAAAAQDUBCwAAAIBqAhYAAAAA1QQsAAAAAKoJWAAAAABU+x9bv+bQ4cACzAAAAABJRU5ErkJggg==;" vertex="1" parent="1">
          <mxGeometry x="880" y="283.5" width="76.5" height="76.5" as="geometry" />
        </mxCell>
        <mxCell id="9dVT_gyHZgVDh6Fpbcvv-16" value="Aggregated View " style="shape=image;verticalLabelPosition=bottom;labelBackgroundColor=default;verticalAlign=top;aspect=fixed;imageAspect=0;image=https://static.thenounproject.com/png/648422-200.png;" vertex="1" parent="1">
          <mxGeometry x="1010" y="284.5" width="76" height="76" as="geometry" />
        </mxCell>
        <mxCell id="9dVT_gyHZgVDh6Fpbcvv-18" style="edgeStyle=orthogonalEdgeStyle;rounded=0;orthogonalLoop=1;jettySize=auto;html=1;strokeColor=#ff0000;" edge="1" parent="1" source="9dVT_gyHZgVDh6Fpbcvv-8" target="9dVT_gyHZgVDh6Fpbcvv-10">
          <mxGeometry relative="1" as="geometry">
            <Array as="points">
              <mxPoint x="380" y="450" />
              <mxPoint x="920" y="450" />
            </Array>
          </mxGeometry>
        </mxCell>
        <mxCell id="9dVT_gyHZgVDh6Fpbcvv-22" value="Authorize &lt;font color=&quot;#ff0000&quot;&gt;&lt;b&gt;Aggregator&lt;/b&gt;&lt;/font&gt;&lt;br style=&quot;border-color: var(--border-color);&quot;&gt;to collect data" style="edgeLabel;html=1;align=center;verticalAlign=middle;resizable=0;points=[];" vertex="1" connectable="0" parent="9dVT_gyHZgVDh6Fpbcvv-18">
          <mxGeometry x="-0.0605" y="-2" relative="1" as="geometry">
            <mxPoint as="offset" />
          </mxGeometry>
        </mxCell>
        <mxCell id="9dVT_gyHZgVDh6Fpbcvv-19" style="edgeStyle=orthogonalEdgeStyle;rounded=0;orthogonalLoop=1;jettySize=auto;html=1;strokeColor=#ff0000;" edge="1" parent="1" source="9dVT_gyHZgVDh6Fpbcvv-6" target="9dVT_gyHZgVDh6Fpbcvv-10">
          <mxGeometry relative="1" as="geometry">
            <Array as="points">
              <mxPoint x="380" y="190" />
              <mxPoint x="920" y="190" />
            </Array>
          </mxGeometry>
        </mxCell>
        <mxCell id="9dVT_gyHZgVDh6Fpbcvv-20" value="Authorize&amp;nbsp;&lt;font style=&quot;border-color: var(--border-color);&quot; color=&quot;#ff0000&quot;&gt;&lt;b style=&quot;border-color: var(--border-color);&quot;&gt;Aggregator&lt;/b&gt;&lt;/font&gt;&lt;br style=&quot;border-color: var(--border-color);&quot;&gt;to collect data" style="edgeLabel;html=1;align=center;verticalAlign=middle;resizable=0;points=[];" vertex="1" connectable="0" parent="9dVT_gyHZgVDh6Fpbcvv-19">
          <mxGeometry x="-0.045" y="1" relative="1" as="geometry">
            <mxPoint x="14" as="offset" />
          </mxGeometry>
        </mxCell>
      </root>
    </mxGraphModel>
  </diagram>
</mxfile>
